<svg width="2562" height="1404" viewBox="0 0 2562 1404" fill="none" xmlns="http://www.w3.org/2000/svg">
<rect width="2562" height="1404" fill="#F5F5F5"/>
<rect x="2" y="2" width="2560" height="1400" fill="white"/>
<g filter="url(#filter0_d_0_1)">
<path d="M2 2H362C374.703 2 385 12.2975 385 25V1379C385 1391.7 374.703 1402 362 1402H2V2Z" fill="#F8F8F8"/>
<path d="M362 2.5C374.426 2.5 384.5 12.5736 384.5 25V1379C384.5 1391.43 374.426 1401.5 362 1401.5H2.5V2.5H362Z" stroke="#B8B8B8" stroke-opacity="0.5"/>
</g>
<path d="M59.806 126.767H48.7694C47.3919 126.767 46.0709 127.299 45.0969 128.247C44.1229 129.195 43.5757 130.48 43.5757 131.821V142.56C43.5757 143.9 44.1229 145.186 45.0969 146.134C46.0709 147.081 47.3919 147.614 48.7694 147.614H57.6545C58.3368 147.614 59.0123 147.483 59.6426 147.229C60.2728 146.975 60.8455 146.603 61.3278 146.133L63.478 144.041C63.9605 143.572 64.3432 143.014 64.6043 142.401C64.8654 141.788 64.9998 141.13 64.9998 140.466V131.821C64.9998 130.48 64.4526 129.195 63.4786 128.247C62.5045 127.299 61.1835 126.767 59.806 126.767Z" stroke="black" stroke-width="1.5" stroke-linecap="round" stroke-linejoin="round"/>
<path d="M64.9999 139.401H60.4554C59.4223 139.401 58.4315 139.801 57.701 140.512C56.9705 141.222 56.5601 142.187 56.5601 143.192V147.614M48.7695 131.821H58.5077M48.7695 136.874H55.2617" stroke="black" stroke-width="1.5" stroke-linecap="round" stroke-linejoin="round"/>
<path d="M80.124 190.91V197.21C80.124 197.854 79.97 198.288 79.662 198.512C79.354 198.736 78.759 198.848 77.877 198.848H76.575L76.386 197.378H77.625C78.017 197.378 78.283 197.329 78.423 197.231C78.563 197.133 78.633 196.937 78.633 196.643V191.372C78.143 191.526 77.422 191.743 76.47 192.023L76.197 190.427C77.135 190.189 77.947 189.972 78.633 189.776V185.492H76.428V184.022H78.633V180.2H80.124V184.022H81.867V185.492H80.124V189.335C80.88 189.111 81.447 188.936 81.825 188.81L82.035 190.28C81.629 190.42 80.992 190.63 80.124 190.91ZM89.637 196.286C90.869 196.762 92.626 197.196 94.908 197.588L94.32 198.995C91.674 198.449 89.616 197.826 88.146 197.126C86.536 197.91 84.443 198.575 81.867 199.121L81.195 197.777C83.435 197.357 85.255 196.853 86.655 196.265C85.563 195.537 84.562 194.536 83.652 193.262L84.66 192.821H82.56V191.561H87.411V189.692H82.728V181.817C83.834 181.649 84.968 181.341 86.13 180.893L86.697 182.111C86.053 182.335 85.206 182.566 84.156 182.804V184.988H86.508V186.206H84.156V188.453H87.411V180.158H88.881V188.453H92.157V186.206H89.847V184.988H92.157V182.804H89.679V181.565H93.564V189.692H88.881V191.561H93.102V192.884C92.192 194.256 91.037 195.39 89.637 196.286ZM88.104 195.572C89.378 194.872 90.449 193.955 91.317 192.821H85.101C85.955 194.011 86.956 194.928 88.104 195.572ZM109.23 195.635L110.112 194.522C111.82 195.306 113.703 196.223 115.761 197.273L114.879 198.512C113.185 197.616 111.302 196.657 109.23 195.635ZM97.344 197.231C99.402 196.363 101.285 195.425 102.993 194.417L103.896 195.53C102.174 196.552 100.249 197.553 98.121 198.533L97.344 197.231ZM112.191 193.409C110.679 193.479 109.16 193.542 107.634 193.598V196.958C107.634 197.728 107.459 198.239 107.109 198.491C106.759 198.743 106.059 198.869 105.009 198.869H103.056L102.846 197.462H104.673C105.233 197.462 105.597 197.399 105.765 197.273C105.933 197.147 106.017 196.881 106.017 196.475V193.64C103.021 193.752 100.767 193.829 99.255 193.871L98.982 192.59C99.934 192.38 100.655 192.177 101.145 191.981C102.377 191.491 103.798 190.861 105.408 190.091C103.7 190.175 101.971 190.238 100.221 190.28L99.99 189.062C100.606 188.95 101.166 188.775 101.67 188.537C102.888 187.949 104.071 187.263 105.219 186.479H99.486V188.768H97.974V185.135H105.681V183.371H98.268V182.027H105.681V180.137H107.298V182.027H114.753V183.371H107.298V185.135H115.005V188.789H113.472V186.479H107.802C106.682 187.193 105.142 188.047 103.182 189.041C105.072 188.985 106.612 188.936 107.802 188.894C108.684 188.418 109.545 187.935 110.385 187.445L111.624 188.411C108.488 190.049 105.604 191.4 102.972 192.464C106.038 192.366 108.607 192.268 110.679 192.17C109.923 191.554 109.37 191.106 109.02 190.826L110.091 190.07C112.023 191.54 113.514 192.709 114.564 193.577L113.535 194.522C113.087 194.158 112.639 193.787 112.191 193.409ZM123.048 188.306H124.938V189.65H122.544C122.53 189.958 122.523 190.385 122.523 190.931C122.523 191.295 122.509 191.785 122.481 192.401H124.833V193.745H122.334C122.18 194.809 121.893 195.754 121.473 196.58C121.081 197.336 120.472 198.211 119.646 199.205L118.386 198.26C119.128 197.462 119.681 196.741 120.045 196.097C120.465 195.383 120.752 194.599 120.906 193.745H118.554V192.401H121.074C121.116 191.967 121.137 191.484 121.137 190.952V189.65H118.218V188.306H121.725C122.285 187.046 122.796 185.8 123.258 184.568L124.518 184.946C124.028 186.066 123.538 187.186 123.048 188.306ZM122.859 182.699H124.854V184.022H118.68V182.699H121.347C121.095 181.775 120.871 181.005 120.675 180.389L122.145 180.179C122.341 180.767 122.579 181.607 122.859 182.699ZM118.953 184.967L120.171 184.589C120.647 185.611 121.039 186.514 121.347 187.298L120.129 187.697C119.835 186.955 119.443 186.045 118.953 184.967ZM125.127 187.466V185.975H127.71V195.446C128.186 195.11 128.599 194.781 128.949 194.459L129.621 195.782C128.809 196.454 127.822 197.21 126.66 198.05L125.82 196.811C126.156 196.559 126.324 196.223 126.324 195.803V187.466H125.127ZM125.4 180.809L126.723 180.284C127.241 181.292 127.815 182.454 128.445 183.77L127.038 184.358C126.632 183.406 126.086 182.223 125.4 180.809ZM134.178 188.327H136.74V189.671H133.548V192.485H136.32V193.829H133.548V199.079H132.12V193.829H129.516V192.485H132.12V189.671H129.138V188.327H132.876C133.366 187.235 133.898 185.982 134.472 184.568L135.774 184.967C135.284 186.031 134.752 187.151 134.178 188.327ZM133.926 182.678H136.257V184.001H129.411V182.678H132.393C132.197 181.936 131.966 181.173 131.7 180.389L133.17 180.158C133.408 180.9 133.66 181.74 133.926 182.678ZM129.873 184.967L131.091 184.589C131.819 186.157 132.232 187.053 132.33 187.277L131.07 187.697C130.454 186.241 130.055 185.331 129.873 184.967ZM145.644 183.938V182.279H141.948V183.938H145.644ZM145.644 186.752V185.114H141.948V186.752H145.644ZM147.03 188.012H140.562V181.019H147.03V188.012ZM153.477 182.468L153.183 184.652H156.375V192.38H155.052V185.933H150.096V192.38H148.815V184.652H151.671L151.944 182.468H148.227V181.166H157.173V182.468H153.477ZM152.973 191.96C154.233 192.87 155.682 193.955 157.32 195.215L156.417 196.391C155.255 195.397 153.967 194.326 152.553 193.178C151.937 194.466 150.705 195.6 148.857 196.58L147.996 195.383C149.564 194.599 150.6 193.822 151.104 193.052C151.608 192.296 151.874 191.134 151.902 189.566C151.916 188.726 151.93 187.886 151.944 187.046H153.267C153.253 187.872 153.239 188.691 153.225 189.503C153.197 190.525 153.113 191.344 152.973 191.96ZM141.885 193.661C142.277 194.739 142.851 195.551 143.607 196.097V190.847H139.323V189.524H147.849V190.847H144.972V193.031H147.513V194.27H144.972V196.748C145.728 196.986 146.729 197.105 147.975 197.105H157.782L157.551 198.533H147.87C146.106 198.533 144.741 198.295 143.775 197.819C142.837 197.357 142.109 196.587 141.591 195.509C141.325 196.713 140.856 197.91 140.184 199.1L139.092 198.092C139.638 197.196 140.023 196.307 140.247 195.425C140.471 194.529 140.611 193.325 140.667 191.813L141.99 191.876C141.976 192.352 141.941 192.947 141.885 193.661Z" fill="black"/>
<path d="M83.484 134.941H85.983V136.306H82.119V138.511H85.605V139.876H82.119V145C82.119 145.714 81.965 146.183 81.657 146.407C81.335 146.645 80.691 146.764 79.725 146.764H78.234L78.045 145.336H79.536C79.956 145.336 80.243 145.28 80.397 145.168C80.537 145.056 80.607 144.846 80.607 144.538V139.876H76.827V138.511H80.607V136.306H76.302V134.941H78.948C78.794 134.521 78.458 133.744 77.94 132.61L79.158 132.064C79.69 133.156 80.117 134.115 80.439 134.941H81.993C82.469 133.919 82.889 132.981 83.253 132.127L84.639 132.568C84.261 133.366 83.876 134.157 83.484 134.941ZM82.371 130.342H85.521V131.707H76.974V130.342H80.691C80.481 129.544 80.257 128.879 80.019 128.347L81.657 128.137C81.839 128.641 82.077 129.376 82.371 130.342ZM84.513 144.139C84.079 143.397 83.505 142.459 82.791 141.325L83.925 140.737C84.485 141.563 85.073 142.473 85.689 143.467L84.513 144.139ZM77.268 145.126L76.113 144.496C77.079 143.124 77.793 141.899 78.255 140.821L79.473 141.283C78.927 142.501 78.192 143.782 77.268 145.126ZM92.451 136.873V146.932H90.939V136.873H88.356V137.083C88.356 139.631 88.244 141.542 88.02 142.816C87.768 144.23 87.264 145.637 86.508 147.037L85.143 146.134C85.829 144.958 86.284 143.733 86.508 142.459C86.704 141.311 86.802 139.491 86.802 136.999V129.817C89.308 129.691 91.611 129.432 93.711 129.04L94.194 130.51C92.388 130.832 90.442 131.056 88.356 131.182V135.403H94.782V136.873H92.451ZM102.048 136.306H103.938V137.65H101.544C101.53 137.958 101.523 138.385 101.523 138.931C101.523 139.295 101.509 139.785 101.481 140.401H103.833V141.745H101.334C101.18 142.809 100.893 143.754 100.473 144.58C100.081 145.336 99.472 146.211 98.646 147.205L97.386 146.26C98.128 145.462 98.681 144.741 99.045 144.097C99.465 143.383 99.752 142.599 99.906 141.745H97.554V140.401H100.074C100.116 139.967 100.137 139.484 100.137 138.952V137.65H97.218V136.306H100.725C101.285 135.046 101.796 133.8 102.258 132.568L103.518 132.946C103.028 134.066 102.538 135.186 102.048 136.306ZM101.859 130.699H103.854V132.022H97.68V130.699H100.347C100.095 129.775 99.871 129.005 99.675 128.389L101.145 128.179C101.341 128.767 101.579 129.607 101.859 130.699ZM97.953 132.967L99.171 132.589C99.647 133.611 100.039 134.514 100.347 135.298L99.129 135.697C98.835 134.955 98.443 134.045 97.953 132.967ZM104.127 135.466V133.975H106.71V143.446C107.186 143.11 107.599 142.781 107.949 142.459L108.621 143.782C107.809 144.454 106.822 145.21 105.66 146.05L104.82 144.811C105.156 144.559 105.324 144.223 105.324 143.803V135.466H104.127ZM104.4 128.809L105.723 128.284C106.241 129.292 106.815 130.454 107.445 131.77L106.038 132.358C105.632 131.406 105.086 130.223 104.4 128.809ZM113.178 136.327H115.74V137.671H112.548V140.485H115.32V141.829H112.548V147.079H111.12V141.829H108.516V140.485H111.12V137.671H108.138V136.327H111.876C112.366 135.235 112.898 133.982 113.472 132.568L114.774 132.967C114.284 134.031 113.752 135.151 113.178 136.327ZM112.926 130.678H115.257V132.001H108.411V130.678H111.393C111.197 129.936 110.966 129.173 110.7 128.389L112.17 128.158C112.408 128.9 112.66 129.74 112.926 130.678ZM108.873 132.967L110.091 132.589C110.819 134.157 111.232 135.053 111.33 135.277L110.07 135.697C109.454 134.241 109.055 133.331 108.873 132.967ZM124.644 131.938V130.279H120.948V131.938H124.644ZM124.644 134.752V133.114H120.948V134.752H124.644ZM126.03 136.012H119.562V129.019H126.03V136.012ZM132.477 130.468L132.183 132.652H135.375V140.38H134.052V133.933H129.096V140.38H127.815V132.652H130.671L130.944 130.468H127.227V129.166H136.173V130.468H132.477ZM131.973 139.96C133.233 140.87 134.682 141.955 136.32 143.215L135.417 144.391C134.255 143.397 132.967 142.326 131.553 141.178C130.937 142.466 129.705 143.6 127.857 144.58L126.996 143.383C128.564 142.599 129.6 141.822 130.104 141.052C130.608 140.296 130.874 139.134 130.902 137.566C130.916 136.726 130.93 135.886 130.944 135.046H132.267C132.253 135.872 132.239 136.691 132.225 137.503C132.197 138.525 132.113 139.344 131.973 139.96ZM120.885 141.661C121.277 142.739 121.851 143.551 122.607 144.097V138.847H118.323V137.524H126.849V138.847H123.972V141.031H126.513V142.27H123.972V144.748C124.728 144.986 125.729 145.105 126.975 145.105H136.782L136.551 146.533H126.87C125.106 146.533 123.741 146.295 122.775 145.819C121.837 145.357 121.109 144.587 120.591 143.509C120.325 144.713 119.856 145.91 119.184 147.1L118.092 146.092C118.638 145.196 119.023 144.307 119.247 143.425C119.471 142.529 119.611 141.325 119.667 139.813L120.99 139.876C120.976 140.352 120.941 140.947 120.885 141.661Z" fill="black"/>
<circle cx="54.2195" cy="188.22" r="8.46951" stroke="black" stroke-width="1.5"/>
<path d="M60.366 194.366L66.0001 200" stroke="black" stroke-width="1.5" stroke-linecap="round"/>
<path d="M32 341C32 333.268 38.268 327 46 327H340C347.732 327 354 333.268 354 341V364C354 371.732 347.732 378 340 378H46C38.268 378 32 371.732 32 364V341Z" fill="#ECECEC"/>
<path d="M60.417 359.084C58.891 357.068 57.365 355.122 55.839 353.246L57.162 352.259C58.436 353.757 59.983 355.654 61.803 357.95L60.417 359.084ZM44.562 359.357L43.197 358.307C44.961 356.291 46.431 354.275 47.607 352.259L49.056 353.141C47.936 355.031 46.438 357.103 44.562 359.357ZM53.676 350.474V358.643C53.676 359.483 53.487 360.043 53.109 360.323C52.731 360.603 51.961 360.743 50.799 360.743H48.531L48.279 359.084H50.484C51.086 359.084 51.478 359.014 51.66 358.874C51.842 358.734 51.933 358.447 51.933 358.013V350.474H43.344V348.836H61.74V350.474H53.676ZM45.339 345.056V343.439H59.766V345.056H45.339ZM73.668 353.078C74.004 352.056 74.277 350.698 74.487 349.004H71.988C71.414 350.978 70.567 352.868 69.447 354.674L68.649 353.309C70.077 350.831 71.036 347.975 71.526 344.741H69.72V343.376H76.44V344.741H72.912C72.716 345.987 72.527 346.96 72.345 347.66H75.831V348.416C75.607 351.328 75.082 353.694 74.256 355.514C73.416 357.376 72.002 359.238 70.014 361.1L69.006 359.945C70.924 358.209 72.289 356.417 73.101 354.569C72.737 354.247 72.023 353.638 70.959 352.742L71.778 351.608C72.59 352.21 73.22 352.7 73.668 353.078ZM77.175 356.333V344.888H78.498V356.333H77.175ZM77.322 360.743L77.091 359.231H79.023C79.555 359.231 79.905 359.168 80.073 359.042C80.241 358.916 80.325 358.657 80.325 358.265V342.389H81.774V358.853C81.774 359.609 81.599 360.113 81.249 360.365C80.899 360.617 80.206 360.743 79.17 360.743H77.322ZM67.956 346.799V361.1H66.528V350.096C65.968 351.244 65.38 352.308 64.764 353.288L64.008 351.734C65.702 348.878 66.99 345.693 67.872 342.179L69.342 342.452C68.922 344.02 68.46 345.469 67.956 346.799ZM90.048 350.306H91.938V351.65H89.544C89.53 351.958 89.523 352.385 89.523 352.931C89.523 353.295 89.509 353.785 89.481 354.401H91.833V355.745H89.334C89.18 356.809 88.893 357.754 88.473 358.58C88.081 359.336 87.472 360.211 86.646 361.205L85.386 360.26C86.128 359.462 86.681 358.741 87.045 358.097C87.465 357.383 87.752 356.599 87.906 355.745H85.554V354.401H88.074C88.116 353.967 88.137 353.484 88.137 352.952V351.65H85.218V350.306H88.725C89.285 349.046 89.796 347.8 90.258 346.568L91.518 346.946C91.028 348.066 90.538 349.186 90.048 350.306ZM89.859 344.699H91.854V346.022H85.68V344.699H88.347C88.095 343.775 87.871 343.005 87.675 342.389L89.145 342.179C89.341 342.767 89.579 343.607 89.859 344.699ZM85.953 346.967L87.171 346.589C87.647 347.611 88.039 348.514 88.347 349.298L87.129 349.697C86.835 348.955 86.443 348.045 85.953 346.967ZM92.127 349.466V347.975H94.71V357.446C95.186 357.11 95.599 356.781 95.949 356.459L96.621 357.782C95.809 358.454 94.822 359.21 93.66 360.05L92.82 358.811C93.156 358.559 93.324 358.223 93.324 357.803V349.466H92.127ZM92.4 342.809L93.723 342.284C94.241 343.292 94.815 344.454 95.445 345.77L94.038 346.358C93.632 345.406 93.086 344.223 92.4 342.809ZM101.178 350.327H103.74V351.671H100.548V354.485H103.32V355.829H100.548V361.079H99.12V355.829H96.516V354.485H99.12V351.671H96.138V350.327H99.876C100.366 349.235 100.898 347.982 101.472 346.568L102.774 346.967C102.284 348.031 101.752 349.151 101.178 350.327ZM100.926 344.678H103.257V346.001H96.411V344.678H99.393C99.197 343.936 98.966 343.173 98.7 342.389L100.17 342.158C100.408 342.9 100.66 343.74 100.926 344.678ZM96.873 346.967L98.091 346.589C98.819 348.157 99.232 349.053 99.33 349.277L98.07 349.697C97.454 348.241 97.055 347.331 96.873 346.967ZM109.074 360.596L107.982 359.525C108.36 359.077 108.549 358.559 108.549 357.971V350.306H106.26V348.794H110.124V357.782C111.16 356.886 111.937 356.186 112.455 355.682L113.232 356.984C111.762 358.342 110.376 359.546 109.074 360.596ZM110.019 346.862C109.193 345.728 108.29 344.573 107.31 343.397L108.633 342.515C109.221 343.201 110.152 344.328 111.426 345.896L110.019 346.862ZM115.584 355.073V357.677C115.584 358.321 115.703 358.762 115.941 359C116.179 359.238 116.62 359.357 117.264 359.357H120.141C120.729 359.357 121.17 359.231 121.464 358.979C121.744 358.741 121.926 358.363 122.01 357.845C122.15 357.005 122.248 356.151 122.304 355.283L123.858 355.745C123.774 356.515 123.634 357.495 123.438 358.685C123.298 359.441 122.983 360.001 122.493 360.365C122.017 360.715 121.317 360.89 120.393 360.89H116.718C115.752 360.89 115.052 360.659 114.618 360.197C114.184 359.735 113.967 359 113.967 357.992V349.76H115.584V353.435C117.838 352.483 119.791 351.377 121.443 350.117L122.388 351.419C120.26 352.861 117.992 354.079 115.584 355.073ZM118.881 342.536C120.225 345.07 122.325 347.254 125.181 349.088L124.299 350.537C121.709 348.773 119.679 346.743 118.209 344.447C116.753 346.757 114.8 348.787 112.35 350.537L111.468 349.088C114.17 347.296 116.2 345.112 117.558 342.536H118.881ZM142.548 349.823V344.825H134.253V343.25H144.207V351.398H136.248V357.404C136.248 358.16 136.409 358.678 136.731 358.958C137.025 359.21 137.564 359.336 138.348 359.336H141.456C142.24 359.336 142.793 359.217 143.115 358.979C143.437 358.741 143.668 358.3 143.808 357.656C143.962 356.886 144.067 356.032 144.123 355.094L145.782 355.598C145.67 356.676 145.53 357.635 145.362 358.475C145.18 359.385 144.837 360.015 144.333 360.365C143.829 360.715 142.996 360.89 141.834 360.89H137.781C136.661 360.89 135.856 360.666 135.366 360.218C134.848 359.742 134.589 358.951 134.589 357.845V349.823H142.548ZM130.095 360.386L128.982 359.294C129.36 358.79 129.549 358.23 129.549 357.614V350.306H127.239V348.773H131.145V357.509C132.027 356.753 132.748 356.095 133.308 355.535L134.106 356.9C132.776 358.146 131.439 359.308 130.095 360.386ZM131.334 346.841C130.466 345.693 129.549 344.524 128.583 343.334L129.927 342.452C131.201 343.964 132.139 345.112 132.741 345.896L131.334 346.841ZM153.237 355.577C152.215 354.793 151.102 353.981 149.898 353.141L150.78 352.028C151.522 352.504 152.67 353.274 154.224 354.338L153.237 355.577ZM161.469 355.829C162.673 356.795 164.451 357.663 166.803 358.433L165.963 360.008C164.017 359.252 162.484 358.468 161.364 357.656C160.188 356.816 159.215 355.773 158.445 354.527V358.832C158.445 359.644 158.256 360.19 157.878 360.47C157.5 360.75 156.744 360.89 155.61 360.89H153.846L153.636 359.42H155.4C155.974 359.42 156.359 359.35 156.555 359.21C156.751 359.07 156.849 358.79 156.849 358.37V355.871C153.517 357.481 150.885 358.72 148.953 359.588L148.218 358.034C150.724 356.984 153.601 355.717 156.849 354.233V351.44H148.323V350.054H162.225V347.954H150.717V346.631H162.225V344.573H150.234V343.229H163.821V350.054H166.761V351.44H158.445V351.986C159.033 353.106 159.677 354.051 160.377 354.821C161.749 353.897 163.037 352.973 164.241 352.049L165.312 353.246C163.73 354.352 162.449 355.213 161.469 355.829Z" fill="black"/>
<path d="M60.417 407.084C58.891 405.068 57.365 403.122 55.839 401.246L57.162 400.259C58.436 401.757 59.983 403.654 61.803 405.95L60.417 407.084ZM44.562 407.357L43.197 406.307C44.961 404.291 46.431 402.275 47.607 400.259L49.056 401.141C47.936 403.031 46.438 405.103 44.562 407.357ZM53.676 398.474V406.643C53.676 407.483 53.487 408.043 53.109 408.323C52.731 408.603 51.961 408.743 50.799 408.743H48.531L48.279 407.084H50.484C51.086 407.084 51.478 407.014 51.66 406.874C51.842 406.734 51.933 406.447 51.933 406.013V398.474H43.344V396.836H61.74V398.474H53.676ZM45.339 393.056V391.439H59.766V393.056H45.339ZM73.668 401.078C74.004 400.056 74.277 398.698 74.487 397.004H71.988C71.414 398.978 70.567 400.868 69.447 402.674L68.649 401.309C70.077 398.831 71.036 395.975 71.526 392.741H69.72V391.376H76.44V392.741H72.912C72.716 393.987 72.527 394.96 72.345 395.66H75.831V396.416C75.607 399.328 75.082 401.694 74.256 403.514C73.416 405.376 72.002 407.238 70.014 409.1L69.006 407.945C70.924 406.209 72.289 404.417 73.101 402.569C72.737 402.247 72.023 401.638 70.959 400.742L71.778 399.608C72.59 400.21 73.22 400.7 73.668 401.078ZM77.175 404.333V392.888H78.498V404.333H77.175ZM77.322 408.743L77.091 407.231H79.023C79.555 407.231 79.905 407.168 80.073 407.042C80.241 406.916 80.325 406.657 80.325 406.265V390.389H81.774V406.853C81.774 407.609 81.599 408.113 81.249 408.365C80.899 408.617 80.206 408.743 79.17 408.743H77.322ZM67.956 394.799V409.1H66.528V398.096C65.968 399.244 65.38 400.308 64.764 401.288L64.008 399.734C65.702 396.878 66.99 393.693 67.872 390.179L69.342 390.452C68.922 392.02 68.46 393.469 67.956 394.799ZM90.048 398.306H91.938V399.65H89.544C89.53 399.958 89.523 400.385 89.523 400.931C89.523 401.295 89.509 401.785 89.481 402.401H91.833V403.745H89.334C89.18 404.809 88.893 405.754 88.473 406.58C88.081 407.336 87.472 408.211 86.646 409.205L85.386 408.26C86.128 407.462 86.681 406.741 87.045 406.097C87.465 405.383 87.752 404.599 87.906 403.745H85.554V402.401H88.074C88.116 401.967 88.137 401.484 88.137 400.952V399.65H85.218V398.306H88.725C89.285 397.046 89.796 395.8 90.258 394.568L91.518 394.946C91.028 396.066 90.538 397.186 90.048 398.306ZM89.859 392.699H91.854V394.022H85.68V392.699H88.347C88.095 391.775 87.871 391.005 87.675 390.389L89.145 390.179C89.341 390.767 89.579 391.607 89.859 392.699ZM85.953 394.967L87.171 394.589C87.647 395.611 88.039 396.514 88.347 397.298L87.129 397.697C86.835 396.955 86.443 396.045 85.953 394.967ZM92.127 397.466V395.975H94.71V405.446C95.186 405.11 95.599 404.781 95.949 404.459L96.621 405.782C95.809 406.454 94.822 407.21 93.66 408.05L92.82 406.811C93.156 406.559 93.324 406.223 93.324 405.803V397.466H92.127ZM92.4 390.809L93.723 390.284C94.241 391.292 94.815 392.454 95.445 393.77L94.038 394.358C93.632 393.406 93.086 392.223 92.4 390.809ZM101.178 398.327H103.74V399.671H100.548V402.485H103.32V403.829H100.548V409.079H99.12V403.829H96.516V402.485H99.12V399.671H96.138V398.327H99.876C100.366 397.235 100.898 395.982 101.472 394.568L102.774 394.967C102.284 396.031 101.752 397.151 101.178 398.327ZM100.926 392.678H103.257V394.001H96.411V392.678H99.393C99.197 391.936 98.966 391.173 98.7 390.389L100.17 390.158C100.408 390.9 100.66 391.74 100.926 392.678ZM96.873 394.967L98.091 394.589C98.819 396.157 99.232 397.053 99.33 397.277L98.07 397.697C97.454 396.241 97.055 395.331 96.873 394.967ZM109.074 408.596L107.982 407.525C108.36 407.077 108.549 406.559 108.549 405.971V398.306H106.26V396.794H110.124V405.782C111.16 404.886 111.937 404.186 112.455 403.682L113.232 404.984C111.762 406.342 110.376 407.546 109.074 408.596ZM110.019 394.862C109.193 393.728 108.29 392.573 107.31 391.397L108.633 390.515C109.221 391.201 110.152 392.328 111.426 393.896L110.019 394.862ZM115.584 403.073V405.677C115.584 406.321 115.703 406.762 115.941 407C116.179 407.238 116.62 407.357 117.264 407.357H120.141C120.729 407.357 121.17 407.231 121.464 406.979C121.744 406.741 121.926 406.363 122.01 405.845C122.15 405.005 122.248 404.151 122.304 403.283L123.858 403.745C123.774 404.515 123.634 405.495 123.438 406.685C123.298 407.441 122.983 408.001 122.493 408.365C122.017 408.715 121.317 408.89 120.393 408.89H116.718C115.752 408.89 115.052 408.659 114.618 408.197C114.184 407.735 113.967 407 113.967 405.992V397.76H115.584V401.435C117.838 400.483 119.791 399.377 121.443 398.117L122.388 399.419C120.26 400.861 117.992 402.079 115.584 403.073ZM118.881 390.536C120.225 393.07 122.325 395.254 125.181 397.088L124.299 398.537C121.709 396.773 119.679 394.743 118.209 392.447C116.753 394.757 114.8 396.787 112.35 398.537L111.468 397.088C114.17 395.296 116.2 393.112 117.558 390.536H118.881ZM142.548 397.823V392.825H134.253V391.25H144.207V399.398H136.248V405.404C136.248 406.16 136.409 406.678 136.731 406.958C137.025 407.21 137.564 407.336 138.348 407.336H141.456C142.24 407.336 142.793 407.217 143.115 406.979C143.437 406.741 143.668 406.3 143.808 405.656C143.962 404.886 144.067 404.032 144.123 403.094L145.782 403.598C145.67 404.676 145.53 405.635 145.362 406.475C145.18 407.385 144.837 408.015 144.333 408.365C143.829 408.715 142.996 408.89 141.834 408.89H137.781C136.661 408.89 135.856 408.666 135.366 408.218C134.848 407.742 134.589 406.951 134.589 405.845V397.823H142.548ZM130.095 408.386L128.982 407.294C129.36 406.79 129.549 406.23 129.549 405.614V398.306H127.239V396.773H131.145V405.509C132.027 404.753 132.748 404.095 133.308 403.535L134.106 404.9C132.776 406.146 131.439 407.308 130.095 408.386ZM131.334 394.841C130.466 393.693 129.549 392.524 128.583 391.334L129.927 390.452C131.201 391.964 132.139 393.112 132.741 393.896L131.334 394.841ZM153.237 403.577C152.215 402.793 151.102 401.981 149.898 401.141L150.78 400.028C151.522 400.504 152.67 401.274 154.224 402.338L153.237 403.577ZM161.469 403.829C162.673 404.795 164.451 405.663 166.803 406.433L165.963 408.008C164.017 407.252 162.484 406.468 161.364 405.656C160.188 404.816 159.215 403.773 158.445 402.527V406.832C158.445 407.644 158.256 408.19 157.878 408.47C157.5 408.75 156.744 408.89 155.61 408.89H153.846L153.636 407.42H155.4C155.974 407.42 156.359 407.35 156.555 407.21C156.751 407.07 156.849 406.79 156.849 406.37V403.871C153.517 405.481 150.885 406.72 148.953 407.588L148.218 406.034C150.724 404.984 153.601 403.717 156.849 402.233V399.44H148.323V398.054H162.225V395.954H150.717V394.631H162.225V392.573H150.234V391.229H163.821V398.054H166.761V399.44H158.445V399.986C159.033 401.106 159.677 402.051 160.377 402.821C161.749 401.897 163.037 400.973 164.241 400.049L165.312 401.246C163.73 402.352 162.449 403.213 161.469 403.829Z" fill="black"/>
<path d="M60.417 455.084C58.891 453.068 57.365 451.122 55.839 449.246L57.162 448.259C58.436 449.757 59.983 451.654 61.803 453.95L60.417 455.084ZM44.562 455.357L43.197 454.307C44.961 452.291 46.431 450.275 47.607 448.259L49.056 449.141C47.936 451.031 46.438 453.103 44.562 455.357ZM53.676 446.474V454.643C53.676 455.483 53.487 456.043 53.109 456.323C52.731 456.603 51.961 456.743 50.799 456.743H48.531L48.279 455.084H50.484C51.086 455.084 51.478 455.014 51.66 454.874C51.842 454.734 51.933 454.447 51.933 454.013V446.474H43.344V444.836H61.74V446.474H53.676ZM45.339 441.056V439.439H59.766V441.056H45.339ZM73.668 449.078C74.004 448.056 74.277 446.698 74.487 445.004H71.988C71.414 446.978 70.567 448.868 69.447 450.674L68.649 449.309C70.077 446.831 71.036 443.975 71.526 440.741H69.72V439.376H76.44V440.741H72.912C72.716 441.987 72.527 442.96 72.345 443.66H75.831V444.416C75.607 447.328 75.082 449.694 74.256 451.514C73.416 453.376 72.002 455.238 70.014 457.1L69.006 455.945C70.924 454.209 72.289 452.417 73.101 450.569C72.737 450.247 72.023 449.638 70.959 448.742L71.778 447.608C72.59 448.21 73.22 448.7 73.668 449.078ZM77.175 452.333V440.888H78.498V452.333H77.175ZM77.322 456.743L77.091 455.231H79.023C79.555 455.231 79.905 455.168 80.073 455.042C80.241 454.916 80.325 454.657 80.325 454.265V438.389H81.774V454.853C81.774 455.609 81.599 456.113 81.249 456.365C80.899 456.617 80.206 456.743 79.17 456.743H77.322ZM67.956 442.799V457.1H66.528V446.096C65.968 447.244 65.38 448.308 64.764 449.288L64.008 447.734C65.702 444.878 66.99 441.693 67.872 438.179L69.342 438.452C68.922 440.02 68.46 441.469 67.956 442.799ZM90.048 446.306H91.938V447.65H89.544C89.53 447.958 89.523 448.385 89.523 448.931C89.523 449.295 89.509 449.785 89.481 450.401H91.833V451.745H89.334C89.18 452.809 88.893 453.754 88.473 454.58C88.081 455.336 87.472 456.211 86.646 457.205L85.386 456.26C86.128 455.462 86.681 454.741 87.045 454.097C87.465 453.383 87.752 452.599 87.906 451.745H85.554V450.401H88.074C88.116 449.967 88.137 449.484 88.137 448.952V447.65H85.218V446.306H88.725C89.285 445.046 89.796 443.8 90.258 442.568L91.518 442.946C91.028 444.066 90.538 445.186 90.048 446.306ZM89.859 440.699H91.854V442.022H85.68V440.699H88.347C88.095 439.775 87.871 439.005 87.675 438.389L89.145 438.179C89.341 438.767 89.579 439.607 89.859 440.699ZM85.953 442.967L87.171 442.589C87.647 443.611 88.039 444.514 88.347 445.298L87.129 445.697C86.835 444.955 86.443 444.045 85.953 442.967ZM92.127 445.466V443.975H94.71V453.446C95.186 453.11 95.599 452.781 95.949 452.459L96.621 453.782C95.809 454.454 94.822 455.21 93.66 456.05L92.82 454.811C93.156 454.559 93.324 454.223 93.324 453.803V445.466H92.127ZM92.4 438.809L93.723 438.284C94.241 439.292 94.815 440.454 95.445 441.77L94.038 442.358C93.632 441.406 93.086 440.223 92.4 438.809ZM101.178 446.327H103.74V447.671H100.548V450.485H103.32V451.829H100.548V457.079H99.12V451.829H96.516V450.485H99.12V447.671H96.138V446.327H99.876C100.366 445.235 100.898 443.982 101.472 442.568L102.774 442.967C102.284 444.031 101.752 445.151 101.178 446.327ZM100.926 440.678H103.257V442.001H96.411V440.678H99.393C99.197 439.936 98.966 439.173 98.7 438.389L100.17 438.158C100.408 438.9 100.66 439.74 100.926 440.678ZM96.873 442.967L98.091 442.589C98.819 444.157 99.232 445.053 99.33 445.277L98.07 445.697C97.454 444.241 97.055 443.331 96.873 442.967ZM109.074 456.596L107.982 455.525C108.36 455.077 108.549 454.559 108.549 453.971V446.306H106.26V444.794H110.124V453.782C111.16 452.886 111.937 452.186 112.455 451.682L113.232 452.984C111.762 454.342 110.376 455.546 109.074 456.596ZM110.019 442.862C109.193 441.728 108.29 440.573 107.31 439.397L108.633 438.515C109.221 439.201 110.152 440.328 111.426 441.896L110.019 442.862ZM115.584 451.073V453.677C115.584 454.321 115.703 454.762 115.941 455C116.179 455.238 116.62 455.357 117.264 455.357H120.141C120.729 455.357 121.17 455.231 121.464 454.979C121.744 454.741 121.926 454.363 122.01 453.845C122.15 453.005 122.248 452.151 122.304 451.283L123.858 451.745C123.774 452.515 123.634 453.495 123.438 454.685C123.298 455.441 122.983 456.001 122.493 456.365C122.017 456.715 121.317 456.89 120.393 456.89H116.718C115.752 456.89 115.052 456.659 114.618 456.197C114.184 455.735 113.967 455 113.967 453.992V445.76H115.584V449.435C117.838 448.483 119.791 447.377 121.443 446.117L122.388 447.419C120.26 448.861 117.992 450.079 115.584 451.073ZM118.881 438.536C120.225 441.07 122.325 443.254 125.181 445.088L124.299 446.537C121.709 444.773 119.679 442.743 118.209 440.447C116.753 442.757 114.8 444.787 112.35 446.537L111.468 445.088C114.17 443.296 116.2 441.112 117.558 438.536H118.881ZM142.548 445.823V440.825H134.253V439.25H144.207V447.398H136.248V453.404C136.248 454.16 136.409 454.678 136.731 454.958C137.025 455.21 137.564 455.336 138.348 455.336H141.456C142.24 455.336 142.793 455.217 143.115 454.979C143.437 454.741 143.668 454.3 143.808 453.656C143.962 452.886 144.067 452.032 144.123 451.094L145.782 451.598C145.67 452.676 145.53 453.635 145.362 454.475C145.18 455.385 144.837 456.015 144.333 456.365C143.829 456.715 142.996 456.89 141.834 456.89H137.781C136.661 456.89 135.856 456.666 135.366 456.218C134.848 455.742 134.589 454.951 134.589 453.845V445.823H142.548ZM130.095 456.386L128.982 455.294C129.36 454.79 129.549 454.23 129.549 453.614V446.306H127.239V444.773H131.145V453.509C132.027 452.753 132.748 452.095 133.308 451.535L134.106 452.9C132.776 454.146 131.439 455.308 130.095 456.386ZM131.334 442.841C130.466 441.693 129.549 440.524 128.583 439.334L129.927 438.452C131.201 439.964 132.139 441.112 132.741 441.896L131.334 442.841ZM153.237 451.577C152.215 450.793 151.102 449.981 149.898 449.141L150.78 448.028C151.522 448.504 152.67 449.274 154.224 450.338L153.237 451.577ZM161.469 451.829C162.673 452.795 164.451 453.663 166.803 454.433L165.963 456.008C164.017 455.252 162.484 454.468 161.364 453.656C160.188 452.816 159.215 451.773 158.445 450.527V454.832C158.445 455.644 158.256 456.19 157.878 456.47C157.5 456.75 156.744 456.89 155.61 456.89H153.846L153.636 455.42H155.4C155.974 455.42 156.359 455.35 156.555 455.21C156.751 455.07 156.849 454.79 156.849 454.37V451.871C153.517 453.481 150.885 454.72 148.953 455.588L148.218 454.034C150.724 452.984 153.601 451.717 156.849 450.233V447.44H148.323V446.054H162.225V443.954H150.717V442.631H162.225V440.573H150.234V439.229H163.821V446.054H166.761V447.44H158.445V447.986C159.033 449.106 159.677 450.051 160.377 450.821C161.749 449.897 163.037 448.973 164.241 448.049L165.312 449.246C163.73 450.352 162.449 451.213 161.469 451.829Z" fill="black"/>
<path d="M60.417 503.084C58.891 501.068 57.365 499.122 55.839 497.246L57.162 496.259C58.436 497.757 59.983 499.654 61.803 501.95L60.417 503.084ZM44.562 503.357L43.197 502.307C44.961 500.291 46.431 498.275 47.607 496.259L49.056 497.141C47.936 499.031 46.438 501.103 44.562 503.357ZM53.676 494.474V502.643C53.676 503.483 53.487 504.043 53.109 504.323C52.731 504.603 51.961 504.743 50.799 504.743H48.531L48.279 503.084H50.484C51.086 503.084 51.478 503.014 51.66 502.874C51.842 502.734 51.933 502.447 51.933 502.013V494.474H43.344V492.836H61.74V494.474H53.676ZM45.339 489.056V487.439H59.766V489.056H45.339ZM73.668 497.078C74.004 496.056 74.277 494.698 74.487 493.004H71.988C71.414 494.978 70.567 496.868 69.447 498.674L68.649 497.309C70.077 494.831 71.036 491.975 71.526 488.741H69.72V487.376H76.44V488.741H72.912C72.716 489.987 72.527 490.96 72.345 491.66H75.831V492.416C75.607 495.328 75.082 497.694 74.256 499.514C73.416 501.376 72.002 503.238 70.014 505.1L69.006 503.945C70.924 502.209 72.289 500.417 73.101 498.569C72.737 498.247 72.023 497.638 70.959 496.742L71.778 495.608C72.59 496.21 73.22 496.7 73.668 497.078ZM77.175 500.333V488.888H78.498V500.333H77.175ZM77.322 504.743L77.091 503.231H79.023C79.555 503.231 79.905 503.168 80.073 503.042C80.241 502.916 80.325 502.657 80.325 502.265V486.389H81.774V502.853C81.774 503.609 81.599 504.113 81.249 504.365C80.899 504.617 80.206 504.743 79.17 504.743H77.322ZM67.956 490.799V505.1H66.528V494.096C65.968 495.244 65.38 496.308 64.764 497.288L64.008 495.734C65.702 492.878 66.99 489.693 67.872 486.179L69.342 486.452C68.922 488.02 68.46 489.469 67.956 490.799ZM90.048 494.306H91.938V495.65H89.544C89.53 495.958 89.523 496.385 89.523 496.931C89.523 497.295 89.509 497.785 89.481 498.401H91.833V499.745H89.334C89.18 500.809 88.893 501.754 88.473 502.58C88.081 503.336 87.472 504.211 86.646 505.205L85.386 504.26C86.128 503.462 86.681 502.741 87.045 502.097C87.465 501.383 87.752 500.599 87.906 499.745H85.554V498.401H88.074C88.116 497.967 88.137 497.484 88.137 496.952V495.65H85.218V494.306H88.725C89.285 493.046 89.796 491.8 90.258 490.568L91.518 490.946C91.028 492.066 90.538 493.186 90.048 494.306ZM89.859 488.699H91.854V490.022H85.68V488.699H88.347C88.095 487.775 87.871 487.005 87.675 486.389L89.145 486.179C89.341 486.767 89.579 487.607 89.859 488.699ZM85.953 490.967L87.171 490.589C87.647 491.611 88.039 492.514 88.347 493.298L87.129 493.697C86.835 492.955 86.443 492.045 85.953 490.967ZM92.127 493.466V491.975H94.71V501.446C95.186 501.11 95.599 500.781 95.949 500.459L96.621 501.782C95.809 502.454 94.822 503.21 93.66 504.05L92.82 502.811C93.156 502.559 93.324 502.223 93.324 501.803V493.466H92.127ZM92.4 486.809L93.723 486.284C94.241 487.292 94.815 488.454 95.445 489.77L94.038 490.358C93.632 489.406 93.086 488.223 92.4 486.809ZM101.178 494.327H103.74V495.671H100.548V498.485H103.32V499.829H100.548V505.079H99.12V499.829H96.516V498.485H99.12V495.671H96.138V494.327H99.876C100.366 493.235 100.898 491.982 101.472 490.568L102.774 490.967C102.284 492.031 101.752 493.151 101.178 494.327ZM100.926 488.678H103.257V490.001H96.411V488.678H99.393C99.197 487.936 98.966 487.173 98.7 486.389L100.17 486.158C100.408 486.9 100.66 487.74 100.926 488.678ZM96.873 490.967L98.091 490.589C98.819 492.157 99.232 493.053 99.33 493.277L98.07 493.697C97.454 492.241 97.055 491.331 96.873 490.967ZM109.074 504.596L107.982 503.525C108.36 503.077 108.549 502.559 108.549 501.971V494.306H106.26V492.794H110.124V501.782C111.16 500.886 111.937 500.186 112.455 499.682L113.232 500.984C111.762 502.342 110.376 503.546 109.074 504.596ZM110.019 490.862C109.193 489.728 108.29 488.573 107.31 487.397L108.633 486.515C109.221 487.201 110.152 488.328 111.426 489.896L110.019 490.862ZM115.584 499.073V501.677C115.584 502.321 115.703 502.762 115.941 503C116.179 503.238 116.62 503.357 117.264 503.357H120.141C120.729 503.357 121.17 503.231 121.464 502.979C121.744 502.741 121.926 502.363 122.01 501.845C122.15 501.005 122.248 500.151 122.304 499.283L123.858 499.745C123.774 500.515 123.634 501.495 123.438 502.685C123.298 503.441 122.983 504.001 122.493 504.365C122.017 504.715 121.317 504.89 120.393 504.89H116.718C115.752 504.89 115.052 504.659 114.618 504.197C114.184 503.735 113.967 503 113.967 501.992V493.76H115.584V497.435C117.838 496.483 119.791 495.377 121.443 494.117L122.388 495.419C120.26 496.861 117.992 498.079 115.584 499.073ZM118.881 486.536C120.225 489.07 122.325 491.254 125.181 493.088L124.299 494.537C121.709 492.773 119.679 490.743 118.209 488.447C116.753 490.757 114.8 492.787 112.35 494.537L111.468 493.088C114.17 491.296 116.2 489.112 117.558 486.536H118.881ZM142.548 493.823V488.825H134.253V487.25H144.207V495.398H136.248V501.404C136.248 502.16 136.409 502.678 136.731 502.958C137.025 503.21 137.564 503.336 138.348 503.336H141.456C142.24 503.336 142.793 503.217 143.115 502.979C143.437 502.741 143.668 502.3 143.808 501.656C143.962 500.886 144.067 500.032 144.123 499.094L145.782 499.598C145.67 500.676 145.53 501.635 145.362 502.475C145.18 503.385 144.837 504.015 144.333 504.365C143.829 504.715 142.996 504.89 141.834 504.89H137.781C136.661 504.89 135.856 504.666 135.366 504.218C134.848 503.742 134.589 502.951 134.589 501.845V493.823H142.548ZM130.095 504.386L128.982 503.294C129.36 502.79 129.549 502.23 129.549 501.614V494.306H127.239V492.773H131.145V501.509C132.027 500.753 132.748 500.095 133.308 499.535L134.106 500.9C132.776 502.146 131.439 503.308 130.095 504.386ZM131.334 490.841C130.466 489.693 129.549 488.524 128.583 487.334L129.927 486.452C131.201 487.964 132.139 489.112 132.741 489.896L131.334 490.841ZM153.237 499.577C152.215 498.793 151.102 497.981 149.898 497.141L150.78 496.028C151.522 496.504 152.67 497.274 154.224 498.338L153.237 499.577ZM161.469 499.829C162.673 500.795 164.451 501.663 166.803 502.433L165.963 504.008C164.017 503.252 162.484 502.468 161.364 501.656C160.188 500.816 159.215 499.773 158.445 498.527V502.832C158.445 503.644 158.256 504.19 157.878 504.47C157.5 504.75 156.744 504.89 155.61 504.89H153.846L153.636 503.42H155.4C155.974 503.42 156.359 503.35 156.555 503.21C156.751 503.07 156.849 502.79 156.849 502.37V499.871C153.517 501.481 150.885 502.72 148.953 503.588L148.218 502.034C150.724 500.984 153.601 499.717 156.849 498.233V495.44H148.323V494.054H162.225V491.954H150.717V490.631H162.225V488.573H150.234V487.229H163.821V494.054H166.761V495.44H158.445V495.986C159.033 497.106 159.677 498.051 160.377 498.821C161.749 497.897 163.037 496.973 164.241 496.049L165.312 497.246C163.73 498.352 162.449 499.213 161.469 499.829Z" fill="black"/>
<path d="M60.417 551.084C58.891 549.068 57.365 547.122 55.839 545.246L57.162 544.259C58.436 545.757 59.983 547.654 61.803 549.95L60.417 551.084ZM44.562 551.357L43.197 550.307C44.961 548.291 46.431 546.275 47.607 544.259L49.056 545.141C47.936 547.031 46.438 549.103 44.562 551.357ZM53.676 542.474V550.643C53.676 551.483 53.487 552.043 53.109 552.323C52.731 552.603 51.961 552.743 50.799 552.743H48.531L48.279 551.084H50.484C51.086 551.084 51.478 551.014 51.66 550.874C51.842 550.734 51.933 550.447 51.933 550.013V542.474H43.344V540.836H61.74V542.474H53.676ZM45.339 537.056V535.439H59.766V537.056H45.339ZM73.668 545.078C74.004 544.056 74.277 542.698 74.487 541.004H71.988C71.414 542.978 70.567 544.868 69.447 546.674L68.649 545.309C70.077 542.831 71.036 539.975 71.526 536.741H69.72V535.376H76.44V536.741H72.912C72.716 537.987 72.527 538.96 72.345 539.66H75.831V540.416C75.607 543.328 75.082 545.694 74.256 547.514C73.416 549.376 72.002 551.238 70.014 553.1L69.006 551.945C70.924 550.209 72.289 548.417 73.101 546.569C72.737 546.247 72.023 545.638 70.959 544.742L71.778 543.608C72.59 544.21 73.22 544.7 73.668 545.078ZM77.175 548.333V536.888H78.498V548.333H77.175ZM77.322 552.743L77.091 551.231H79.023C79.555 551.231 79.905 551.168 80.073 551.042C80.241 550.916 80.325 550.657 80.325 550.265V534.389H81.774V550.853C81.774 551.609 81.599 552.113 81.249 552.365C80.899 552.617 80.206 552.743 79.17 552.743H77.322ZM67.956 538.799V553.1H66.528V542.096C65.968 543.244 65.38 544.308 64.764 545.288L64.008 543.734C65.702 540.878 66.99 537.693 67.872 534.179L69.342 534.452C68.922 536.02 68.46 537.469 67.956 538.799ZM90.048 542.306H91.938V543.65H89.544C89.53 543.958 89.523 544.385 89.523 544.931C89.523 545.295 89.509 545.785 89.481 546.401H91.833V547.745H89.334C89.18 548.809 88.893 549.754 88.473 550.58C88.081 551.336 87.472 552.211 86.646 553.205L85.386 552.26C86.128 551.462 86.681 550.741 87.045 550.097C87.465 549.383 87.752 548.599 87.906 547.745H85.554V546.401H88.074C88.116 545.967 88.137 545.484 88.137 544.952V543.65H85.218V542.306H88.725C89.285 541.046 89.796 539.8 90.258 538.568L91.518 538.946C91.028 540.066 90.538 541.186 90.048 542.306ZM89.859 536.699H91.854V538.022H85.68V536.699H88.347C88.095 535.775 87.871 535.005 87.675 534.389L89.145 534.179C89.341 534.767 89.579 535.607 89.859 536.699ZM85.953 538.967L87.171 538.589C87.647 539.611 88.039 540.514 88.347 541.298L87.129 541.697C86.835 540.955 86.443 540.045 85.953 538.967ZM92.127 541.466V539.975H94.71V549.446C95.186 549.11 95.599 548.781 95.949 548.459L96.621 549.782C95.809 550.454 94.822 551.21 93.66 552.05L92.82 550.811C93.156 550.559 93.324 550.223 93.324 549.803V541.466H92.127ZM92.4 534.809L93.723 534.284C94.241 535.292 94.815 536.454 95.445 537.77L94.038 538.358C93.632 537.406 93.086 536.223 92.4 534.809ZM101.178 542.327H103.74V543.671H100.548V546.485H103.32V547.829H100.548V553.079H99.12V547.829H96.516V546.485H99.12V543.671H96.138V542.327H99.876C100.366 541.235 100.898 539.982 101.472 538.568L102.774 538.967C102.284 540.031 101.752 541.151 101.178 542.327ZM100.926 536.678H103.257V538.001H96.411V536.678H99.393C99.197 535.936 98.966 535.173 98.7 534.389L100.17 534.158C100.408 534.9 100.66 535.74 100.926 536.678ZM96.873 538.967L98.091 538.589C98.819 540.157 99.232 541.053 99.33 541.277L98.07 541.697C97.454 540.241 97.055 539.331 96.873 538.967ZM109.074 552.596L107.982 551.525C108.36 551.077 108.549 550.559 108.549 549.971V542.306H106.26V540.794H110.124V549.782C111.16 548.886 111.937 548.186 112.455 547.682L113.232 548.984C111.762 550.342 110.376 551.546 109.074 552.596ZM110.019 538.862C109.193 537.728 108.29 536.573 107.31 535.397L108.633 534.515C109.221 535.201 110.152 536.328 111.426 537.896L110.019 538.862ZM115.584 547.073V549.677C115.584 550.321 115.703 550.762 115.941 551C116.179 551.238 116.62 551.357 117.264 551.357H120.141C120.729 551.357 121.17 551.231 121.464 550.979C121.744 550.741 121.926 550.363 122.01 549.845C122.15 549.005 122.248 548.151 122.304 547.283L123.858 547.745C123.774 548.515 123.634 549.495 123.438 550.685C123.298 551.441 122.983 552.001 122.493 552.365C122.017 552.715 121.317 552.89 120.393 552.89H116.718C115.752 552.89 115.052 552.659 114.618 552.197C114.184 551.735 113.967 551 113.967 549.992V541.76H115.584V545.435C117.838 544.483 119.791 543.377 121.443 542.117L122.388 543.419C120.26 544.861 117.992 546.079 115.584 547.073ZM118.881 534.536C120.225 537.07 122.325 539.254 125.181 541.088L124.299 542.537C121.709 540.773 119.679 538.743 118.209 536.447C116.753 538.757 114.8 540.787 112.35 542.537L111.468 541.088C114.17 539.296 116.2 537.112 117.558 534.536H118.881ZM142.548 541.823V536.825H134.253V535.25H144.207V543.398H136.248V549.404C136.248 550.16 136.409 550.678 136.731 550.958C137.025 551.21 137.564 551.336 138.348 551.336H141.456C142.24 551.336 142.793 551.217 143.115 550.979C143.437 550.741 143.668 550.3 143.808 549.656C143.962 548.886 144.067 548.032 144.123 547.094L145.782 547.598C145.67 548.676 145.53 549.635 145.362 550.475C145.18 551.385 144.837 552.015 144.333 552.365C143.829 552.715 142.996 552.89 141.834 552.89H137.781C136.661 552.89 135.856 552.666 135.366 552.218C134.848 551.742 134.589 550.951 134.589 549.845V541.823H142.548ZM130.095 552.386L128.982 551.294C129.36 550.79 129.549 550.23 129.549 549.614V542.306H127.239V540.773H131.145V549.509C132.027 548.753 132.748 548.095 133.308 547.535L134.106 548.9C132.776 550.146 131.439 551.308 130.095 552.386ZM131.334 538.841C130.466 537.693 129.549 536.524 128.583 535.334L129.927 534.452C131.201 535.964 132.139 537.112 132.741 537.896L131.334 538.841ZM153.237 547.577C152.215 546.793 151.102 545.981 149.898 545.141L150.78 544.028C151.522 544.504 152.67 545.274 154.224 546.338L153.237 547.577ZM161.469 547.829C162.673 548.795 164.451 549.663 166.803 550.433L165.963 552.008C164.017 551.252 162.484 550.468 161.364 549.656C160.188 548.816 159.215 547.773 158.445 546.527V550.832C158.445 551.644 158.256 552.19 157.878 552.47C157.5 552.75 156.744 552.89 155.61 552.89H153.846L153.636 551.42H155.4C155.974 551.42 156.359 551.35 156.555 551.21C156.751 551.07 156.849 550.79 156.849 550.37V547.871C153.517 549.481 150.885 550.72 148.953 551.588L148.218 550.034C150.724 548.984 153.601 547.717 156.849 546.233V543.44H148.323V542.054H162.225V539.954H150.717V538.631H162.225V536.573H150.234V535.229H163.821V542.054H166.761V543.44H158.445V543.986C159.033 545.106 159.677 546.051 160.377 546.821C161.749 545.897 163.037 544.973 164.241 544.049L165.312 545.246C163.73 546.352 162.449 547.213 161.469 547.829Z" fill="black"/>
<path d="M60.417 599.084C58.891 597.068 57.365 595.122 55.839 593.246L57.162 592.259C58.436 593.757 59.983 595.654 61.803 597.95L60.417 599.084ZM44.562 599.357L43.197 598.307C44.961 596.291 46.431 594.275 47.607 592.259L49.056 593.141C47.936 595.031 46.438 597.103 44.562 599.357ZM53.676 590.474V598.643C53.676 599.483 53.487 600.043 53.109 600.323C52.731 600.603 51.961 600.743 50.799 600.743H48.531L48.279 599.084H50.484C51.086 599.084 51.478 599.014 51.66 598.874C51.842 598.734 51.933 598.447 51.933 598.013V590.474H43.344V588.836H61.74V590.474H53.676ZM45.339 585.056V583.439H59.766V585.056H45.339ZM73.668 593.078C74.004 592.056 74.277 590.698 74.487 589.004H71.988C71.414 590.978 70.567 592.868 69.447 594.674L68.649 593.309C70.077 590.831 71.036 587.975 71.526 584.741H69.72V583.376H76.44V584.741H72.912C72.716 585.987 72.527 586.96 72.345 587.66H75.831V588.416C75.607 591.328 75.082 593.694 74.256 595.514C73.416 597.376 72.002 599.238 70.014 601.1L69.006 599.945C70.924 598.209 72.289 596.417 73.101 594.569C72.737 594.247 72.023 593.638 70.959 592.742L71.778 591.608C72.59 592.21 73.22 592.7 73.668 593.078ZM77.175 596.333V584.888H78.498V596.333H77.175ZM77.322 600.743L77.091 599.231H79.023C79.555 599.231 79.905 599.168 80.073 599.042C80.241 598.916 80.325 598.657 80.325 598.265V582.389H81.774V598.853C81.774 599.609 81.599 600.113 81.249 600.365C80.899 600.617 80.206 600.743 79.17 600.743H77.322ZM67.956 586.799V601.1H66.528V590.096C65.968 591.244 65.38 592.308 64.764 593.288L64.008 591.734C65.702 588.878 66.99 585.693 67.872 582.179L69.342 582.452C68.922 584.02 68.46 585.469 67.956 586.799ZM90.048 590.306H91.938V591.65H89.544C89.53 591.958 89.523 592.385 89.523 592.931C89.523 593.295 89.509 593.785 89.481 594.401H91.833V595.745H89.334C89.18 596.809 88.893 597.754 88.473 598.58C88.081 599.336 87.472 600.211 86.646 601.205L85.386 600.26C86.128 599.462 86.681 598.741 87.045 598.097C87.465 597.383 87.752 596.599 87.906 595.745H85.554V594.401H88.074C88.116 593.967 88.137 593.484 88.137 592.952V591.65H85.218V590.306H88.725C89.285 589.046 89.796 587.8 90.258 586.568L91.518 586.946C91.028 588.066 90.538 589.186 90.048 590.306ZM89.859 584.699H91.854V586.022H85.68V584.699H88.347C88.095 583.775 87.871 583.005 87.675 582.389L89.145 582.179C89.341 582.767 89.579 583.607 89.859 584.699ZM85.953 586.967L87.171 586.589C87.647 587.611 88.039 588.514 88.347 589.298L87.129 589.697C86.835 588.955 86.443 588.045 85.953 586.967ZM92.127 589.466V587.975H94.71V597.446C95.186 597.11 95.599 596.781 95.949 596.459L96.621 597.782C95.809 598.454 94.822 599.21 93.66 600.05L92.82 598.811C93.156 598.559 93.324 598.223 93.324 597.803V589.466H92.127ZM92.4 582.809L93.723 582.284C94.241 583.292 94.815 584.454 95.445 585.77L94.038 586.358C93.632 585.406 93.086 584.223 92.4 582.809ZM101.178 590.327H103.74V591.671H100.548V594.485H103.32V595.829H100.548V601.079H99.12V595.829H96.516V594.485H99.12V591.671H96.138V590.327H99.876C100.366 589.235 100.898 587.982 101.472 586.568L102.774 586.967C102.284 588.031 101.752 589.151 101.178 590.327ZM100.926 584.678H103.257V586.001H96.411V584.678H99.393C99.197 583.936 98.966 583.173 98.7 582.389L100.17 582.158C100.408 582.9 100.66 583.74 100.926 584.678ZM96.873 586.967L98.091 586.589C98.819 588.157 99.232 589.053 99.33 589.277L98.07 589.697C97.454 588.241 97.055 587.331 96.873 586.967ZM109.074 600.596L107.982 599.525C108.36 599.077 108.549 598.559 108.549 597.971V590.306H106.26V588.794H110.124V597.782C111.16 596.886 111.937 596.186 112.455 595.682L113.232 596.984C111.762 598.342 110.376 599.546 109.074 600.596ZM110.019 586.862C109.193 585.728 108.29 584.573 107.31 583.397L108.633 582.515C109.221 583.201 110.152 584.328 111.426 585.896L110.019 586.862ZM115.584 595.073V597.677C115.584 598.321 115.703 598.762 115.941 599C116.179 599.238 116.62 599.357 117.264 599.357H120.141C120.729 599.357 121.17 599.231 121.464 598.979C121.744 598.741 121.926 598.363 122.01 597.845C122.15 597.005 122.248 596.151 122.304 595.283L123.858 595.745C123.774 596.515 123.634 597.495 123.438 598.685C123.298 599.441 122.983 600.001 122.493 600.365C122.017 600.715 121.317 600.89 120.393 600.89H116.718C115.752 600.89 115.052 600.659 114.618 600.197C114.184 599.735 113.967 599 113.967 597.992V589.76H115.584V593.435C117.838 592.483 119.791 591.377 121.443 590.117L122.388 591.419C120.26 592.861 117.992 594.079 115.584 595.073ZM118.881 582.536C120.225 585.07 122.325 587.254 125.181 589.088L124.299 590.537C121.709 588.773 119.679 586.743 118.209 584.447C116.753 586.757 114.8 588.787 112.35 590.537L111.468 589.088C114.17 587.296 116.2 585.112 117.558 582.536H118.881ZM142.548 589.823V584.825H134.253V583.25H144.207V591.398H136.248V597.404C136.248 598.16 136.409 598.678 136.731 598.958C137.025 599.21 137.564 599.336 138.348 599.336H141.456C142.24 599.336 142.793 599.217 143.115 598.979C143.437 598.741 143.668 598.3 143.808 597.656C143.962 596.886 144.067 596.032 144.123 595.094L145.782 595.598C145.67 596.676 145.53 597.635 145.362 598.475C145.18 599.385 144.837 600.015 144.333 600.365C143.829 600.715 142.996 600.89 141.834 600.89H137.781C136.661 600.89 135.856 600.666 135.366 600.218C134.848 599.742 134.589 598.951 134.589 597.845V589.823H142.548ZM130.095 600.386L128.982 599.294C129.36 598.79 129.549 598.23 129.549 597.614V590.306H127.239V588.773H131.145V597.509C132.027 596.753 132.748 596.095 133.308 595.535L134.106 596.9C132.776 598.146 131.439 599.308 130.095 600.386ZM131.334 586.841C130.466 585.693 129.549 584.524 128.583 583.334L129.927 582.452C131.201 583.964 132.139 585.112 132.741 585.896L131.334 586.841ZM153.237 595.577C152.215 594.793 151.102 593.981 149.898 593.141L150.78 592.028C151.522 592.504 152.67 593.274 154.224 594.338L153.237 595.577ZM161.469 595.829C162.673 596.795 164.451 597.663 166.803 598.433L165.963 600.008C164.017 599.252 162.484 598.468 161.364 597.656C160.188 596.816 159.215 595.773 158.445 594.527V598.832C158.445 599.644 158.256 600.19 157.878 600.47C157.5 600.75 156.744 600.89 155.61 600.89H153.846L153.636 599.42H155.4C155.974 599.42 156.359 599.35 156.555 599.21C156.751 599.07 156.849 598.79 156.849 598.37V595.871C153.517 597.481 150.885 598.72 148.953 599.588L148.218 598.034C150.724 596.984 153.601 595.717 156.849 594.233V591.44H148.323V590.054H162.225V587.954H150.717V586.631H162.225V584.573H150.234V583.229H163.821V590.054H166.761V591.44H158.445V591.986C159.033 593.106 159.677 594.051 160.377 594.821C161.749 593.897 163.037 592.973 164.241 592.049L165.312 593.246C163.73 594.352 162.449 595.213 161.469 595.829Z" fill="black"/>
<path d="M60.417 647.084C58.891 645.068 57.365 643.122 55.839 641.246L57.162 640.259C58.436 641.757 59.983 643.654 61.803 645.95L60.417 647.084ZM44.562 647.357L43.197 646.307C44.961 644.291 46.431 642.275 47.607 640.259L49.056 641.141C47.936 643.031 46.438 645.103 44.562 647.357ZM53.676 638.474V646.643C53.676 647.483 53.487 648.043 53.109 648.323C52.731 648.603 51.961 648.743 50.799 648.743H48.531L48.279 647.084H50.484C51.086 647.084 51.478 647.014 51.66 646.874C51.842 646.734 51.933 646.447 51.933 646.013V638.474H43.344V636.836H61.74V638.474H53.676ZM45.339 633.056V631.439H59.766V633.056H45.339ZM73.668 641.078C74.004 640.056 74.277 638.698 74.487 637.004H71.988C71.414 638.978 70.567 640.868 69.447 642.674L68.649 641.309C70.077 638.831 71.036 635.975 71.526 632.741H69.72V631.376H76.44V632.741H72.912C72.716 633.987 72.527 634.96 72.345 635.66H75.831V636.416C75.607 639.328 75.082 641.694 74.256 643.514C73.416 645.376 72.002 647.238 70.014 649.1L69.006 647.945C70.924 646.209 72.289 644.417 73.101 642.569C72.737 642.247 72.023 641.638 70.959 640.742L71.778 639.608C72.59 640.21 73.22 640.7 73.668 641.078ZM77.175 644.333V632.888H78.498V644.333H77.175ZM77.322 648.743L77.091 647.231H79.023C79.555 647.231 79.905 647.168 80.073 647.042C80.241 646.916 80.325 646.657 80.325 646.265V630.389H81.774V646.853C81.774 647.609 81.599 648.113 81.249 648.365C80.899 648.617 80.206 648.743 79.17 648.743H77.322ZM67.956 634.799V649.1H66.528V638.096C65.968 639.244 65.38 640.308 64.764 641.288L64.008 639.734C65.702 636.878 66.99 633.693 67.872 630.179L69.342 630.452C68.922 632.02 68.46 633.469 67.956 634.799ZM90.048 638.306H91.938V639.65H89.544C89.53 639.958 89.523 640.385 89.523 640.931C89.523 641.295 89.509 641.785 89.481 642.401H91.833V643.745H89.334C89.18 644.809 88.893 645.754 88.473 646.58C88.081 647.336 87.472 648.211 86.646 649.205L85.386 648.26C86.128 647.462 86.681 646.741 87.045 646.097C87.465 645.383 87.752 644.599 87.906 643.745H85.554V642.401H88.074C88.116 641.967 88.137 641.484 88.137 640.952V639.65H85.218V638.306H88.725C89.285 637.046 89.796 635.8 90.258 634.568L91.518 634.946C91.028 636.066 90.538 637.186 90.048 638.306ZM89.859 632.699H91.854V634.022H85.68V632.699H88.347C88.095 631.775 87.871 631.005 87.675 630.389L89.145 630.179C89.341 630.767 89.579 631.607 89.859 632.699ZM85.953 634.967L87.171 634.589C87.647 635.611 88.039 636.514 88.347 637.298L87.129 637.697C86.835 636.955 86.443 636.045 85.953 634.967ZM92.127 637.466V635.975H94.71V645.446C95.186 645.11 95.599 644.781 95.949 644.459L96.621 645.782C95.809 646.454 94.822 647.21 93.66 648.05L92.82 646.811C93.156 646.559 93.324 646.223 93.324 645.803V637.466H92.127ZM92.4 630.809L93.723 630.284C94.241 631.292 94.815 632.454 95.445 633.77L94.038 634.358C93.632 633.406 93.086 632.223 92.4 630.809ZM101.178 638.327H103.74V639.671H100.548V642.485H103.32V643.829H100.548V649.079H99.12V643.829H96.516V642.485H99.12V639.671H96.138V638.327H99.876C100.366 637.235 100.898 635.982 101.472 634.568L102.774 634.967C102.284 636.031 101.752 637.151 101.178 638.327ZM100.926 632.678H103.257V634.001H96.411V632.678H99.393C99.197 631.936 98.966 631.173 98.7 630.389L100.17 630.158C100.408 630.9 100.66 631.74 100.926 632.678ZM96.873 634.967L98.091 634.589C98.819 636.157 99.232 637.053 99.33 637.277L98.07 637.697C97.454 636.241 97.055 635.331 96.873 634.967ZM109.074 648.596L107.982 647.525C108.36 647.077 108.549 646.559 108.549 645.971V638.306H106.26V636.794H110.124V645.782C111.16 644.886 111.937 644.186 112.455 643.682L113.232 644.984C111.762 646.342 110.376 647.546 109.074 648.596ZM110.019 634.862C109.193 633.728 108.29 632.573 107.31 631.397L108.633 630.515C109.221 631.201 110.152 632.328 111.426 633.896L110.019 634.862ZM115.584 643.073V645.677C115.584 646.321 115.703 646.762 115.941 647C116.179 647.238 116.62 647.357 117.264 647.357H120.141C120.729 647.357 121.17 647.231 121.464 646.979C121.744 646.741 121.926 646.363 122.01 645.845C122.15 645.005 122.248 644.151 122.304 643.283L123.858 643.745C123.774 644.515 123.634 645.495 123.438 646.685C123.298 647.441 122.983 648.001 122.493 648.365C122.017 648.715 121.317 648.89 120.393 648.89H116.718C115.752 648.89 115.052 648.659 114.618 648.197C114.184 647.735 113.967 647 113.967 645.992V637.76H115.584V641.435C117.838 640.483 119.791 639.377 121.443 638.117L122.388 639.419C120.26 640.861 117.992 642.079 115.584 643.073ZM118.881 630.536C120.225 633.07 122.325 635.254 125.181 637.088L124.299 638.537C121.709 636.773 119.679 634.743 118.209 632.447C116.753 634.757 114.8 636.787 112.35 638.537L111.468 637.088C114.17 635.296 116.2 633.112 117.558 630.536H118.881ZM142.548 637.823V632.825H134.253V631.25H144.207V639.398H136.248V645.404C136.248 646.16 136.409 646.678 136.731 646.958C137.025 647.21 137.564 647.336 138.348 647.336H141.456C142.24 647.336 142.793 647.217 143.115 646.979C143.437 646.741 143.668 646.3 143.808 645.656C143.962 644.886 144.067 644.032 144.123 643.094L145.782 643.598C145.67 644.676 145.53 645.635 145.362 646.475C145.18 647.385 144.837 648.015 144.333 648.365C143.829 648.715 142.996 648.89 141.834 648.89H137.781C136.661 648.89 135.856 648.666 135.366 648.218C134.848 647.742 134.589 646.951 134.589 645.845V637.823H142.548ZM130.095 648.386L128.982 647.294C129.36 646.79 129.549 646.23 129.549 645.614V638.306H127.239V636.773H131.145V645.509C132.027 644.753 132.748 644.095 133.308 643.535L134.106 644.9C132.776 646.146 131.439 647.308 130.095 648.386ZM131.334 634.841C130.466 633.693 129.549 632.524 128.583 631.334L129.927 630.452C131.201 631.964 132.139 633.112 132.741 633.896L131.334 634.841ZM153.237 643.577C152.215 642.793 151.102 641.981 149.898 641.141L150.78 640.028C151.522 640.504 152.67 641.274 154.224 642.338L153.237 643.577ZM161.469 643.829C162.673 644.795 164.451 645.663 166.803 646.433L165.963 648.008C164.017 647.252 162.484 646.468 161.364 645.656C160.188 644.816 159.215 643.773 158.445 642.527V646.832C158.445 647.644 158.256 648.19 157.878 648.47C157.5 648.75 156.744 648.89 155.61 648.89H153.846L153.636 647.42H155.4C155.974 647.42 156.359 647.35 156.555 647.21C156.751 647.07 156.849 646.79 156.849 646.37V643.871C153.517 645.481 150.885 646.72 148.953 647.588L148.218 646.034C150.724 644.984 153.601 643.717 156.849 642.233V639.44H148.323V638.054H162.225V635.954H150.717V634.631H162.225V632.573H150.234V631.229H163.821V638.054H166.761V639.44H158.445V639.986C159.033 641.106 159.677 642.051 160.377 642.821C161.749 641.897 163.037 640.973 164.241 640.049L165.312 641.246C163.73 642.352 162.449 643.213 161.469 643.829Z" fill="black"/>
<path d="M47.6105 286.096H49.3325V287.776H47.0855C47.0855 288.168 47.0785 288.553 47.0645 288.931C47.0645 289.365 47.0575 289.792 47.0435 290.212H49.2275V291.871H46.8545C46.7005 292.893 46.4135 293.817 45.9935 294.643C45.6295 295.357 45.0415 296.218 44.2295 297.226L42.6335 296.092C43.3195 295.322 43.8375 294.643 44.1875 294.055C44.5795 293.397 44.8595 292.669 45.0275 291.871H42.8645V290.212H45.2375C45.2795 289.82 45.3005 289.4 45.3005 288.952V287.776H42.5285V286.096H45.9725C46.4485 285.032 46.9315 283.828 47.4215 282.484L48.9965 282.946C48.8845 283.198 48.4225 284.248 47.6105 286.096ZM47.3375 280.426H49.2485V282.085H42.9485V280.426H45.4055C45.3215 280.062 45.1325 279.355 44.8385 278.305L46.7285 278.095C46.9805 278.991 47.1835 279.768 47.3375 280.426ZM43.1795 282.946L44.7125 282.505C45.1745 283.555 45.5455 284.444 45.8255 285.172L44.2715 285.613C43.8935 284.633 43.5295 283.744 43.1795 282.946ZM49.5215 285.781V283.828H52.2935V292.921C52.6295 292.669 52.9865 292.354 53.3645 291.976L54.2675 293.572C53.3575 294.44 52.3005 295.329 51.0965 296.239L49.9835 294.811C50.3755 294.475 50.5715 294.055 50.5715 293.551V285.781H49.5215ZM49.6895 278.767L51.3695 278.158C51.9855 279.418 52.5315 280.601 53.0075 281.707L51.1805 282.379C50.7185 281.175 50.2215 279.971 49.6895 278.767ZM58.8455 286.117H61.2185V287.797H58.1945V290.296H60.7985V291.955H58.1945V297.079H56.4095V291.955H53.9945V290.296H56.4095V287.797H53.5325V286.117H57.2285C57.8585 284.647 58.3555 283.436 58.7195 282.484L60.3365 282.946C59.9165 283.856 59.4195 284.913 58.8455 286.117ZM58.4885 280.405H60.7355V282.085H53.8055V280.405H56.5355C56.4235 279.957 56.2135 279.264 55.9055 278.326L57.8585 278.095C58.1105 278.963 58.3205 279.733 58.4885 280.405ZM54.2255 282.946L55.7585 282.505C56.2485 283.583 56.6265 284.458 56.8925 285.13L55.3175 285.592C55.0235 284.864 54.6595 283.982 54.2255 282.946ZM66.2795 296.743L64.9985 295.231C65.4325 294.741 65.6495 294.174 65.6495 293.53V286.579H63.5705V284.626H67.6655V293.173C68.3655 292.571 69.0585 291.941 69.7445 291.283L70.6265 293.047C69.1845 294.405 67.7355 295.637 66.2795 296.743ZM67.1195 282.988C66.3215 281.84 65.4395 280.643 64.4735 279.397L66.1745 278.326C66.9725 279.278 67.8895 280.44 68.9255 281.812L67.1195 282.988ZM73.2515 291.073V293.467C73.2515 294.041 73.3635 294.44 73.5875 294.664C73.8115 294.888 74.2105 295 74.7845 295H77.4515C77.9835 295 78.3825 294.888 78.6485 294.664C78.9005 294.454 79.0685 294.083 79.1525 293.551C79.2925 292.697 79.3905 291.836 79.4465 290.968L81.4415 291.577C81.3015 292.655 81.1405 293.691 80.9585 294.685C80.6925 296.197 79.6285 296.946 77.7665 296.932H74.0915C73.0695 296.932 72.3345 296.694 71.8865 296.218C71.4245 295.728 71.1935 294.958 71.1935 293.908V285.676H73.2515V288.994C75.3935 288.084 77.2135 287.062 78.7115 285.928L79.9295 287.566C77.8295 288.952 75.6035 290.121 73.2515 291.073ZM76.5065 278.347C77.8365 280.867 79.9435 283.002 82.8275 284.752L81.7145 286.642C79.0965 284.92 77.0665 282.96 75.6245 280.762C74.1685 282.988 72.2085 284.948 69.7445 286.642L68.6735 284.752C71.4455 283.016 73.4755 280.881 74.7635 278.347H76.5065ZM99.6065 285.571V281.077H91.5425V279.061H101.77V287.587H94.0205V293.173C94.0205 293.887 94.1675 294.37 94.4615 294.622C94.7275 294.846 95.2105 294.958 95.9105 294.958H98.7035C99.4035 294.958 99.9005 294.846 100.195 294.622C100.503 294.398 100.713 293.978 100.825 293.362C100.937 292.76 101.042 291.899 101.14 290.779L103.282 291.43C103.128 292.634 102.967 293.649 102.799 294.475C102.603 295.399 102.246 296.043 101.728 296.407C101.224 296.757 100.384 296.932 99.2075 296.932H95.1545C94.0345 296.932 93.2155 296.694 92.6975 296.218C92.1515 295.714 91.8785 294.895 91.8785 293.761V285.571H99.6065ZM87.3005 296.47L86.0195 294.979C86.4535 294.433 86.6705 293.838 86.6705 293.194V286.558H84.5495V284.584H88.6865V292.921C89.7505 291.997 90.3875 291.43 90.5975 291.22L91.5005 292.984C90.3665 294.062 88.9665 295.224 87.3005 296.47ZM88.4135 282.988C87.5455 281.77 86.6565 280.559 85.7465 279.355L87.4685 278.284C88.7145 279.81 89.6385 280.986 90.2405 281.812L88.4135 282.988ZM119.284 291.913C120.502 292.781 122.168 293.53 124.282 294.16L123.232 296.197C119.886 294.979 117.499 293.334 116.071 291.262V294.811C116.071 295.651 115.861 296.218 115.441 296.512C115.035 296.792 114.258 296.932 113.11 296.932H111.199L110.926 295.105H112.69C113.208 295.105 113.558 295.042 113.74 294.916C113.922 294.79 114.013 294.538 114.013 294.16V292.123C110.849 293.663 108.294 294.881 106.348 295.777L105.508 293.74C106.572 293.292 108.168 292.606 110.296 291.682C109.204 290.87 108.119 290.086 107.041 289.33L108.175 287.923C109.141 288.525 110.289 289.281 111.619 290.191L110.506 291.598C111.682 291.08 112.851 290.555 114.013 290.023V287.692H105.613V285.949H119.368V284.143H107.965V282.484H119.368V280.741H107.461V279.04H121.405V285.949H124.24V287.692H116.071V288.196C116.687 289.232 117.282 290.051 117.856 290.653C119.06 289.855 120.285 288.966 121.531 287.986L122.896 289.498C121.692 290.324 120.488 291.129 119.284 291.913Z" fill="black"/>
<path d="M43.88 45.608H58.568V48.808H47.752V56.072H57.256V59.336H47.752V66.888H58.824V70.184H43.88V45.608ZM66.0123 70.184H62.1723V44.584H66.0123V70.184ZM72.7985 62.216V62.376C72.9692 64.0613 73.5665 65.3413 74.5905 66.216C75.5932 67.0693 76.9478 67.496 78.6545 67.496C80.3612 67.496 81.8225 67.1547 83.0385 66.472L84.1265 69.032C82.5265 70.056 80.5425 70.568 78.1745 70.568C75.3585 70.568 73.1505 69.7893 71.5505 68.232C69.8865 66.6107 69.0545 64.3173 69.0545 61.352C69.0545 58.536 69.8652 56.296 71.4865 54.632C73.0652 53.0107 75.1132 52.2 77.6305 52.2C79.8705 52.2 81.6518 52.8933 82.9745 54.28C84.4038 55.7733 85.1185 57.8853 85.1185 60.616C85.1185 61.0427 85.0758 61.576 84.9905 62.216H72.7985ZM81.5985 59.656V59.432C81.3638 56.5307 80.0305 55.08 77.5985 55.08C76.3612 55.08 75.3372 55.4427 74.5265 56.168C73.6518 56.9573 73.0972 58.12 72.8625 59.656H81.5985ZM91.7615 60.776V70.184H87.9535V52.616H91.5695V55.848C91.9748 54.7813 92.7215 53.9067 93.8095 53.224C94.8975 52.5413 96.1455 52.2 97.5535 52.2C99.4735 52.2 100.999 52.84 102.13 54.12C103.282 55.4213 103.858 57.256 103.858 59.624V70.184H100.05V60.68C100.05 58.7813 99.7402 57.384 99.1215 56.488C98.5455 55.6347 97.6602 55.208 96.4655 55.208C95.0362 55.208 93.8842 55.7413 93.0095 56.808C92.1775 57.832 91.7615 59.1547 91.7615 60.776ZM116.12 55.304C114.499 55.304 113.155 55.816 112.088 56.84C110.936 57.928 110.36 59.4213 110.36 61.32C110.36 63.1973 110.883 64.7013 111.928 65.832C112.952 66.9413 114.328 67.496 116.056 67.496C117.294 67.496 118.424 67.24 119.448 66.728L120.632 69.352C119.118 70.1627 117.432 70.568 115.576 70.568C112.824 70.568 110.648 69.736 109.048 68.072C107.47 66.4293 106.68 64.232 106.68 61.48C106.68 58.664 107.544 56.4133 109.272 54.728C111 53.0427 113.283 52.2 116.12 52.2C117.848 52.2 119.374 52.5733 120.696 53.32L119.448 56.168C118.424 55.592 117.315 55.304 116.12 55.304ZM123.266 70.184V44.584H126.914V55.88C127.319 54.792 128.066 53.9067 129.154 53.224C130.242 52.5413 131.49 52.2 132.898 52.2C134.839 52.2 136.375 52.84 137.506 54.12C138.658 55.4213 139.234 57.256 139.234 59.624V70.184H135.394V60.712C135.394 58.8133 135.085 57.416 134.466 56.52C133.89 55.6667 133.005 55.24 131.81 55.24C130.402 55.24 129.261 55.7627 128.386 56.808C127.533 57.832 127.106 59.1653 127.106 60.808V70.184H123.266ZM158.471 52.552V70.184H154.887L154.791 67.24C154.386 68.2 153.661 68.9893 152.615 69.608C151.549 70.248 150.343 70.568 148.999 70.568C147.101 70.568 145.597 69.9493 144.487 68.712C143.357 67.4533 142.791 65.6933 142.791 63.432V52.552H146.631V62.312C146.567 65.768 147.719 67.4853 150.087 67.464C151.41 67.464 152.487 66.984 153.319 66.024C154.194 65.0213 154.631 63.6667 154.631 61.96V52.552H158.471ZM168.048 70.536C165.616 70.5147 163.462 69.8853 161.584 68.648L162.736 65.768C164.464 66.984 166.278 67.592 168.176 67.592C169.094 67.592 169.808 67.4107 170.32 67.048C170.832 66.6853 171.088 66.184 171.088 65.544C171.088 64.904 170.854 64.3813 170.384 63.976C169.915 63.592 169.051 63.176 167.792 62.728C165.872 62.0667 164.486 61.3413 163.632 60.552C162.694 59.6987 162.224 58.6213 162.224 57.32C162.224 55.8267 162.811 54.6 163.984 53.64C165.179 52.68 166.726 52.2 168.624 52.2C170.566 52.2 172.4 52.7013 174.128 53.704L173.072 56.52C171.558 55.5813 170.043 55.112 168.528 55.112C167.675 55.112 167.014 55.2827 166.544 55.624C166.075 55.9653 165.84 56.4347 165.84 57.032C165.84 57.5867 166.064 58.0453 166.512 58.408C166.982 58.792 167.846 59.1867 169.104 59.592C171.11 60.232 172.539 60.968 173.392 61.8C174.288 62.6533 174.736 63.7627 174.736 65.128C174.736 66.792 174.15 68.104 172.976 69.064C171.782 70.0453 170.139 70.536 168.048 70.536Z" fill="black"/>
<line x1="37" y1="239.5" x2="354" y2="239.5" stroke="#848484"/>
<rect x="330" y="49" width="23" height="20" rx="5" stroke="#7E7E7E" stroke-width="2"/>
<line x1="336" y1="48" x2="336" y2="70" stroke="#7E7E7E" stroke-width="2"/>
<path d="M1362.07 498.216H1389.79V503.208H1367.9V519.848H1387.03V525.032H1367.9V542.12H1390.55V547.368H1362.07V498.216ZM1403.05 547.368H1397.29V496.168H1403.05V547.368ZM1414.87 530.728V531.112C1415.38 539.133 1419.69 543.229 1427.79 543.4C1431.38 543.4 1434.39 542.653 1436.82 541.16L1438.55 545.064C1435.47 547.112 1431.63 548.136 1427.03 548.136C1421.65 548.136 1417.38 546.579 1414.23 543.464C1410.94 540.221 1409.3 535.635 1409.3 529.704C1409.3 524.115 1410.86 519.635 1413.97 516.264C1417 513.021 1420.95 511.4 1425.81 511.4C1430.12 511.4 1433.58 512.744 1436.18 515.432C1438.99 518.333 1440.4 522.429 1440.4 527.72C1440.4 528.787 1440.34 529.789 1440.21 530.728H1414.87ZM1434.77 526.376V525.864C1434.3 519.336 1431.31 516.051 1425.81 516.008C1423.04 516.008 1420.73 516.84 1418.9 518.504C1416.85 520.339 1415.59 522.963 1415.12 526.376H1434.77ZM1451.74 528.488V547.368H1445.98V512.232H1451.35V519.208C1452.16 516.947 1453.66 515.091 1455.83 513.64C1458.09 512.147 1460.63 511.4 1463.45 511.4C1467.29 511.4 1470.34 512.744 1472.6 515.432C1474.9 518.163 1476.06 521.875 1476.06 526.568V547.368H1470.3V528.488C1470.3 524.221 1469.59 521.064 1468.18 519.016C1466.86 517.096 1464.88 516.136 1462.23 516.136C1459.07 516.136 1456.54 517.309 1454.62 519.656C1452.7 521.96 1451.74 524.904 1451.74 528.488ZM1500.04 516.264C1496.41 516.264 1493.43 517.395 1491.08 519.656C1488.52 522.131 1487.24 525.459 1487.24 529.64C1487.24 533.736 1488.35 537.043 1490.57 539.56C1492.87 542.163 1495.97 543.464 1499.85 543.464C1502.45 543.464 1504.91 542.888 1507.21 541.736L1509 545.768C1506.1 547.347 1502.84 548.136 1499.21 548.136C1493.62 548.136 1489.27 546.451 1486.15 543.08C1483.17 539.837 1481.67 535.528 1481.67 530.152C1481.67 524.435 1483.38 519.869 1486.79 516.456C1490.16 513.085 1494.6 511.4 1500.11 511.4C1503.65 511.4 1506.65 512.125 1509.13 513.576L1507.15 517.928C1504.88 516.819 1502.52 516.264 1500.04 516.264ZM1514.72 547.368V496.168H1520.1V519.144C1520.95 516.84 1522.45 514.984 1524.58 513.576C1526.8 512.125 1529.34 511.4 1532.2 511.4C1536.08 511.4 1539.15 512.723 1541.41 515.368C1543.72 518.056 1544.87 521.789 1544.87 526.568V547.368H1539.04V528.552C1539.04 524.2 1538.36 521.021 1537 519.016C1535.72 517.139 1533.73 516.2 1531.04 516.2C1527.93 516.2 1525.39 517.373 1523.43 519.72C1521.51 522.024 1520.55 524.968 1520.55 528.552V547.368H1514.72ZM1581.46 512.104V547.368H1576.09L1575.9 541.416C1575.08 543.379 1573.63 544.979 1571.54 546.216C1569.41 547.496 1567 548.136 1564.31 548.136C1560.56 548.136 1557.55 546.856 1555.29 544.296C1553.03 541.736 1551.9 538.259 1551.9 533.864V512.104H1557.66V531.688C1557.66 535.656 1558.27 538.557 1559.51 540.392C1560.79 542.269 1562.8 543.208 1565.53 543.208C1568.47 543.208 1570.86 542.163 1572.7 540.072C1574.66 537.853 1575.64 534.845 1575.64 531.048V512.104H1581.46ZM1600.59 548.072C1595.64 548.072 1591.59 546.792 1588.43 544.232L1590.41 539.688C1593.66 542.077 1597.09 543.272 1600.72 543.272C1602.81 543.272 1604.43 542.845 1605.58 541.992C1606.73 541.139 1607.31 539.923 1607.31 538.344C1607.31 536.936 1606.8 535.763 1605.77 534.824C1604.71 533.843 1602.87 532.861 1600.27 531.88C1596.43 530.515 1593.7 529.021 1592.08 527.4C1590.46 525.779 1589.65 523.752 1589.65 521.32C1589.65 518.376 1590.78 515.987 1593.04 514.152C1595.26 512.317 1598.16 511.4 1601.74 511.4C1605.41 511.4 1608.87 512.403 1612.11 514.408L1610.19 519.016C1607.33 517.139 1604.45 516.2 1601.55 516.2C1599.59 516.2 1598.07 516.605 1597.01 517.416C1595.9 518.227 1595.34 519.379 1595.34 520.872C1595.34 522.109 1595.85 523.155 1596.88 524.008C1597.9 524.904 1599.69 525.8 1602.25 526.696C1606.14 528.147 1608.91 529.704 1610.57 531.368C1612.24 533.075 1613.07 535.187 1613.07 537.704C1613.07 540.904 1611.96 543.421 1609.74 545.256C1607.48 547.133 1604.43 548.072 1600.59 548.072Z" fill="black"/>
<rect x="1084.5" y="604.5" width="801" height="159" rx="13.5" fill="#F9F9F9" stroke="#CBCBCB"/>
<rect x="1701" y="721" width="113" height="29" rx="12" fill="#E4E4E4"/>
<path d="M1724.85 734.904V737.368C1724.85 737.629 1724.9 737.816 1724.99 737.928C1725.09 738.04 1725.24 738.096 1725.45 738.096H1726.01C1726.26 738.096 1726.43 738.049 1726.53 737.956C1726.64 737.853 1726.71 737.676 1726.73 737.424C1726.77 736.995 1726.82 736.565 1726.85 736.136L1727.74 736.444C1727.68 737.06 1727.63 737.503 1727.58 737.774C1727.46 738.623 1726.98 739.034 1726.15 739.006H1725.15C1724.69 739.006 1724.36 738.889 1724.15 738.656C1723.94 738.413 1723.83 738.026 1723.83 737.494V734.904H1722.28C1722.23 736.024 1722.05 736.878 1721.73 737.466C1721.4 738.073 1720.79 738.67 1719.88 739.258L1719.15 738.46C1719.95 737.975 1720.49 737.489 1720.78 737.004C1721.08 736.509 1721.24 735.809 1721.27 734.904H1719.08V733.966H1722.99V731.866H1720.92C1720.69 732.445 1720.47 732.944 1720.26 733.364L1719.32 732.972C1719.94 731.833 1720.42 730.592 1720.76 729.248L1721.7 729.458C1721.59 729.869 1721.44 730.359 1721.25 730.928H1722.99V728.786H1724.03V730.928H1727.05V731.866H1724.03V733.966H1727.57V734.904H1724.85ZM1717.96 731.852C1717.66 731.385 1717.11 730.62 1716.31 729.556L1717.19 728.996C1717.76 729.752 1718.33 730.508 1718.89 731.264L1717.96 731.852ZM1718.29 738.418C1718.64 738.978 1719.07 739.379 1719.59 739.622C1720.1 739.865 1720.76 739.986 1721.58 739.986H1727.92L1727.75 740.994H1721.28C1720.41 740.994 1719.7 740.859 1719.13 740.588C1718.59 740.336 1718.14 739.93 1717.77 739.37C1716.91 740.322 1716.37 740.938 1716.14 741.218L1715.65 740.042C1716.36 739.333 1716.89 738.819 1717.22 738.502V734.386H1715.65V733.322H1718.29V738.418ZM1738.21 739.216V741.386H1737.14V739.216H1733.41V738.25H1737.14V736.71H1734.11V735.758H1737.14V734.526H1738.21V735.758H1741.27V736.71H1738.21V738.25H1741.92V739.216H1738.21ZM1732.31 735.996V740.07C1732.31 740.518 1732.21 740.817 1732.01 740.966C1731.8 741.115 1731.39 741.19 1730.77 741.19H1729.75L1729.61 740.182H1730.62C1730.88 740.182 1731.05 740.149 1731.14 740.084C1731.22 740.019 1731.26 739.893 1731.26 739.706V736.29C1730.57 736.477 1730.06 736.612 1729.72 736.696L1729.54 735.604C1730.12 735.483 1730.69 735.343 1731.26 735.184V732.23H1729.7V731.264H1731.26V728.814H1732.31V731.264H1733.69V732.23H1732.31V734.918C1732.74 734.806 1733.17 734.694 1733.59 734.582L1733.7 735.576C1733.24 735.716 1732.78 735.856 1732.31 735.996ZM1738.7 732.944C1739.55 733.271 1740.62 733.546 1741.9 733.77L1741.54 734.764C1739.85 734.381 1738.57 733.975 1737.69 733.546C1736.72 734.041 1735.48 734.479 1733.98 734.862L1733.59 733.896C1734.75 733.644 1735.77 733.327 1736.65 732.944C1735.86 732.412 1735.15 731.679 1734.53 730.746L1735.09 730.452H1733.97V729.514H1741.08V730.48C1740.39 731.507 1739.59 732.328 1738.7 732.944ZM1737.63 732.454C1738.49 731.941 1739.23 731.273 1739.86 730.452H1735.48C1736.05 731.292 1736.77 731.959 1737.63 732.454ZM1744.3 740.518H1742.93L1747.04 729.766H1748.46L1752.49 740.518H1751.06L1750.01 737.592H1745.36L1744.3 740.518ZM1745.78 736.486H1749.6C1749.55 736.327 1749.47 736.108 1749.38 735.828C1748.76 734.129 1748.2 732.515 1747.7 730.984V730.97C1747.18 732.575 1746.62 734.195 1746.02 735.828C1745.95 736.043 1745.87 736.262 1745.78 736.486ZM1754.12 736.444C1754.12 737.321 1754.34 738.017 1754.79 738.53C1755.23 739.034 1755.82 739.286 1756.55 739.286C1757.25 739.286 1757.82 739.048 1758.26 738.572C1758.72 738.077 1758.95 737.424 1758.95 736.612V736.318C1758.95 735.469 1758.73 734.797 1758.29 734.302C1757.86 733.826 1757.29 733.588 1756.58 733.588C1755.86 733.588 1755.28 733.835 1754.83 734.33C1754.36 734.853 1754.12 735.557 1754.12 736.444ZM1758.96 733.882L1758.99 732.832H1760.1V739.496C1760.06 742.156 1758.78 743.486 1756.25 743.486C1755.06 743.486 1754.03 743.183 1753.17 742.576L1753.67 741.54C1754.48 742.1 1755.36 742.38 1756.32 742.38C1758.01 742.38 1758.85 741.447 1758.85 739.58V739.062C1758.64 739.417 1758.32 739.701 1757.87 739.916C1757.41 740.14 1756.89 740.252 1756.3 740.252C1755.3 740.252 1754.49 739.939 1753.87 739.314C1753.18 738.633 1752.85 737.699 1752.86 736.514C1752.9 735.254 1753.28 734.293 1753.99 733.63C1754.72 732.958 1755.57 732.622 1756.55 732.622C1757.1 732.622 1757.61 732.753 1758.07 733.014C1758.48 733.247 1758.78 733.537 1758.96 733.882ZM1762.7 736.878V736.962C1762.82 738.717 1763.76 739.613 1765.53 739.65C1766.32 739.65 1766.97 739.487 1767.51 739.16L1767.88 740.014C1767.21 740.462 1766.37 740.686 1765.36 740.686C1764.19 740.686 1763.25 740.345 1762.56 739.664C1761.84 738.955 1761.49 737.951 1761.49 736.654C1761.49 735.431 1761.83 734.451 1762.51 733.714C1763.17 733.005 1764.03 732.65 1765.1 732.65C1766.04 732.65 1766.8 732.944 1767.37 733.532C1767.98 734.167 1768.29 735.063 1768.29 736.22C1768.29 736.453 1768.28 736.673 1768.25 736.878H1762.7ZM1767.06 735.926V735.814C1766.95 734.386 1766.3 733.667 1765.1 733.658C1764.49 733.658 1763.99 733.84 1763.59 734.204C1763.14 734.605 1762.86 735.179 1762.76 735.926H1767.06ZM1770.77 736.388V740.518H1769.51V732.832H1770.68V734.358C1770.86 733.863 1771.19 733.457 1771.66 733.14C1772.16 732.813 1772.71 732.65 1773.33 732.65C1774.17 732.65 1774.84 732.944 1775.33 733.532C1775.84 734.129 1776.09 734.941 1776.09 735.968V740.518H1774.83V736.388C1774.83 735.455 1774.67 734.764 1774.37 734.316C1774.08 733.896 1773.64 733.686 1773.06 733.686C1772.37 733.686 1771.82 733.943 1771.4 734.456C1770.98 734.96 1770.77 735.604 1770.77 736.388ZM1778.4 730.788H1779.66V732.818H1781.73V733.868H1779.66V738.096C1779.66 738.637 1779.74 739.025 1779.92 739.258C1780.08 739.473 1780.34 739.58 1780.69 739.58C1781.02 739.58 1781.34 739.515 1781.64 739.384L1781.81 740.336C1781.49 740.569 1781.03 740.686 1780.41 740.686C1779.75 740.686 1779.24 740.485 1778.9 740.084C1778.56 739.692 1778.4 739.137 1778.4 738.418V733.868H1777.16V732.818H1778.4V730.788Z" fill="black"/>
<path d="M1789 734L1792.22 738.024C1792.62 738.524 1793.38 738.524 1793.78 738.024L1797 734" stroke="black" stroke-width="1.3" stroke-linecap="round"/>
<circle cx="1852" cy="735" r="18" fill="#E4E4E4"/>
<path d="M1846 735.5H1858M1858 735.5L1853.5 731M1858 735.5L1853.5 740" stroke="#414141" stroke-width="1.5" stroke-linecap="round"/>
<path d="M59.6097 1364.18L61.3479 1365.73C61.6689 1366 61.8834 1366.37 61.9526 1366.78C62.0217 1367.19 61.9409 1367.62 61.7248 1367.98L59.6289 1371.56C59.4663 1371.83 59.2341 1372.06 58.9559 1372.21C58.6744 1372.37 58.3584 1372.45 58.0368 1372.45C57.8372 1372.45 57.6387 1372.42 57.4484 1372.36L55.2236 1371.63C54.8339 1371.88 54.4288 1372.1 54.0084 1372.3L53.5411 1374.56C53.4546 1374.97 53.2236 1375.34 52.8892 1375.6C52.5506 1375.87 52.1308 1376.01 51.7009 1376H47.361C46.9311 1376.01 46.5113 1375.87 46.1727 1375.6C45.839 1375.34 45.6087 1374.97 45.5227 1374.56L45.0535 1372.3C44.6386 1372.1 44.236 1371.88 43.8479 1371.63L41.6155 1372.36C41.4251 1372.42 41.2266 1372.45 41.0271 1372.45C40.7061 1372.45 40.3907 1372.37 40.1099 1372.21C39.8319 1372.06 39.5997 1371.83 39.4368 1371.56L37.2659 1367.98C37.0402 1367.61 36.954 1367.18 37.0234 1366.76C37.0928 1366.34 37.313 1365.96 37.6428 1365.69L39.3792 1363.5V1362.82L37.6409 1361.27C37.3199 1361 37.1054 1360.63 37.0363 1360.22C36.9671 1359.8 37.0479 1359.38 37.264 1359.02L39.4349 1355.44C39.5975 1355.17 39.8297 1354.94 40.1079 1354.79C40.3888 1354.63 40.7041 1354.55 41.0251 1354.55C41.2229 1354.53 41.4213 1354.55 41.6135 1354.6L43.8018 1355.37C44.1927 1355.12 44.5978 1354.9 45.017 1354.7L45.4862 1352.44C45.5722 1352.03 45.8025 1351.66 46.1361 1351.4C46.4747 1351.13 46.8945 1350.99 47.3245 1351H51.6278C52.0578 1350.99 52.4776 1351.13 52.8162 1351.4C53.1527 1351.66 53.3834 1352.03 53.4661 1352.44L53.9353 1354.7C54.3519 1354.9 54.7538 1355.12 55.1409 1355.37L57.3753 1354.64C57.6233 1354.56 57.8853 1354.53 58.1448 1354.55C58.4043 1354.58 58.6556 1354.66 58.8828 1354.79C59.1616 1354.94 59.3924 1355.17 59.5558 1355.44L61.7248 1359.02C61.9536 1359.38 62.0442 1359.81 61.9798 1360.23C61.9154 1360.65 61.7004 1361.03 61.3749 1361.31L59.6097 1362.81V1364.18Z" stroke="black" stroke-width="1.5"/>
<path d="M54.3062 1363.5C54.3062 1364.77 53.7998 1366 52.8983 1366.9C51.9967 1367.8 50.774 1368.31 49.4991 1368.31C48.2241 1368.31 47.0014 1367.8 46.0999 1366.9C45.1984 1366 44.6919 1364.77 44.6919 1363.5C44.6919 1362.22 45.1984 1361 46.0999 1360.1C47.0014 1359.2 48.2241 1358.69 49.4991 1358.69C50.774 1358.69 51.9967 1359.2 52.8983 1360.1C53.7998 1361 54.3062 1362.22 54.3062 1363.5Z" stroke="black" stroke-width="1.5"/>
<path d="M1115.1 634.896V629.472H1116.06V634.896H1115.1ZM1115.39 637.424L1115.23 636.384H1116.3C1116.63 636.384 1116.86 636.341 1116.98 636.256C1117.09 636.171 1117.15 636.005 1117.15 635.76V628.832H1118.13V636.112C1118.13 636.635 1118.01 636.987 1117.76 637.168C1117.53 637.339 1117.05 637.424 1116.32 637.424H1115.39ZM1113.1 631.264V629.872H1111.23V631.264H1113.1ZM1113.1 633.552V632.144H1111.23V633.552H1113.1ZM1113.1 634.432H1111.23V637.552H1110.26V628.944H1114.1V636.352C1114.1 636.779 1113.99 637.067 1113.79 637.216C1113.59 637.365 1113.19 637.44 1112.61 637.44H1111.92L1111.79 636.448H1112.5C1112.74 636.448 1112.91 636.416 1112.99 636.352C1113.07 636.299 1113.1 636.181 1113.1 636V634.432ZM1108.64 634.336V637.6H1107.57V634.496C1107.01 634.571 1106.18 634.672 1105.07 634.8L1104.93 633.68C1106.1 633.552 1106.98 633.451 1107.57 633.376V631.12H1105.33V630.048C1105.66 628.971 1105.99 627.739 1106.32 626.352H1105.01V625.296H1106.58C1106.78 624.4 1106.93 623.691 1107.02 623.168L1108.11 623.28C1107.97 623.92 1107.81 624.592 1107.63 625.296H1109.87V626.352H1107.36C1106.99 627.813 1106.65 629.051 1106.35 630.064H1107.57V627.552H1108.64V630.064H1109.62V631.12H1108.64V633.232C1109.19 633.168 1109.58 633.115 1109.81 633.072L1109.76 634.176C1109.55 634.208 1109.17 634.261 1108.64 634.336ZM1116.42 626.88V627.76H1112.06V626.96C1111.5 627.451 1110.82 627.941 1110.03 628.432L1109.41 627.456C1111.35 626.347 1112.82 624.949 1113.81 623.264H1114.7C1115.67 624.917 1117.19 626.315 1119.26 627.456L1118.64 628.432C1117.81 627.931 1117.07 627.413 1116.42 626.88ZM1116.32 626.8C1115.54 626.149 1114.85 625.403 1114.26 624.56C1113.64 625.424 1112.97 626.171 1112.26 626.8H1116.32ZM1128.03 628.448C1127.45 630.304 1126.68 631.915 1125.73 633.28C1124.76 634.677 1123.45 636.043 1121.79 637.376L1120.93 636.192C1122.62 634.901 1123.96 633.536 1124.93 632.096C1125.93 630.613 1126.69 628.843 1127.2 626.784C1126.61 625.781 1125.86 624.885 1124.94 624.096L1125.97 623.376C1126.69 624.016 1127.3 624.704 1127.79 625.44C1128.29 626.187 1128.81 627.184 1129.34 628.432C1130.11 630.224 1130.93 631.701 1131.81 632.864C1132.66 633.984 1133.74 635.035 1135.04 636.016L1134.02 637.248C1132.6 636 1131.48 634.789 1130.66 633.616C1129.77 632.357 1128.92 630.704 1128.11 628.656C1128.09 628.592 1128.06 628.523 1128.03 628.448ZM1140.61 629.376H1142.05V630.4H1140.22C1140.21 630.635 1140.21 630.96 1140.21 631.376C1140.21 631.653 1140.2 632.027 1140.18 632.496H1141.97V633.52H1140.06C1139.95 634.331 1139.73 635.051 1139.41 635.68C1139.11 636.256 1138.65 636.923 1138.02 637.68L1137.06 636.96C1137.62 636.352 1138.04 635.803 1138.32 635.312C1138.64 634.768 1138.86 634.171 1138.98 633.52H1137.18V632.496H1139.1C1139.14 632.165 1139.15 631.797 1139.15 631.392V630.4H1136.93V629.376H1139.6C1140.03 628.416 1140.42 627.467 1140.77 626.528L1141.73 626.816C1141.35 627.669 1140.98 628.523 1140.61 629.376ZM1140.46 625.104H1141.98V626.112H1137.28V625.104H1139.31C1139.12 624.4 1138.95 623.813 1138.8 623.344L1139.92 623.184C1140.07 623.632 1140.25 624.272 1140.46 625.104ZM1137.49 626.832L1138.42 626.544C1138.78 627.323 1139.08 628.011 1139.31 628.608L1138.38 628.912C1138.16 628.347 1137.86 627.653 1137.49 626.832ZM1142.19 628.736V627.6H1144.16V634.816C1144.52 634.56 1144.84 634.309 1145.1 634.064L1145.62 635.072C1145 635.584 1144.25 636.16 1143.36 636.8L1142.72 635.856C1142.98 635.664 1143.1 635.408 1143.1 635.088V628.736H1142.19ZM1142.4 623.664L1143.41 623.264C1143.8 624.032 1144.24 624.917 1144.72 625.92L1143.65 626.368C1143.34 625.643 1142.92 624.741 1142.4 623.664ZM1149.09 629.392H1151.04V630.416H1148.61V632.56H1150.72V633.584H1148.61V637.584H1147.52V633.584H1145.54V632.56H1147.52V630.416H1145.25V629.392H1148.1C1148.47 628.56 1148.87 627.605 1149.31 626.528L1150.3 626.832C1149.93 627.643 1149.53 628.496 1149.09 629.392ZM1148.9 625.088H1150.67V626.096H1145.46V625.088H1147.73C1147.58 624.523 1147.4 623.941 1147.2 623.344L1148.32 623.168C1148.5 623.733 1148.69 624.373 1148.9 625.088ZM1145.81 626.832L1146.74 626.544C1147.29 627.739 1147.61 628.421 1147.68 628.592L1146.72 628.912C1146.25 627.803 1145.95 627.109 1145.81 626.832ZM1157.82 626.048V624.784H1155.01V626.048H1157.82ZM1157.82 628.192V626.944H1155.01V628.192H1157.82ZM1158.88 629.152H1153.95V623.824H1158.88V629.152ZM1163.79 624.928L1163.57 626.592H1166V632.48H1164.99V627.568H1161.22V632.48H1160.24V626.592H1162.42L1162.62 624.928H1159.79V623.936H1166.61V624.928H1163.79ZM1163.41 632.16C1164.37 632.853 1165.47 633.68 1166.72 634.64L1166.03 635.536C1165.15 634.779 1164.17 633.963 1163.09 633.088C1162.62 634.069 1161.68 634.933 1160.27 635.68L1159.62 634.768C1160.81 634.171 1161.6 633.579 1161.98 632.992C1162.37 632.416 1162.57 631.531 1162.59 630.336C1162.6 629.696 1162.61 629.056 1162.62 628.416H1163.63C1163.62 629.045 1163.61 629.669 1163.6 630.288C1163.58 631.067 1163.51 631.691 1163.41 632.16ZM1154.96 633.456C1155.26 634.277 1155.7 634.896 1156.27 635.312V631.312H1153.01V630.304H1159.5V631.312H1157.31V632.976H1159.25V633.92H1157.31V635.808C1157.89 635.989 1158.65 636.08 1159.6 636.08H1167.07L1166.9 637.168H1159.52C1158.18 637.168 1157.14 636.987 1156.4 636.624C1155.69 636.272 1155.13 635.685 1154.74 634.864C1154.53 635.781 1154.18 636.693 1153.66 637.6L1152.83 636.832C1153.25 636.149 1153.54 635.472 1153.71 634.8C1153.88 634.117 1153.99 633.2 1154.03 632.048L1155.04 632.096C1155.03 632.459 1155 632.912 1154.96 633.456ZM1170.13 636.784C1169.82 636.784 1169.55 636.672 1169.33 636.448C1169.11 636.235 1169.01 635.968 1169.01 635.648C1169.01 635.328 1169.11 635.056 1169.33 634.832C1169.54 634.608 1169.81 634.496 1170.13 634.496C1170.44 634.496 1170.7 634.608 1170.91 634.832C1171.13 635.056 1171.23 635.328 1171.23 635.648C1171.23 635.957 1171.13 636.224 1170.91 636.448C1170.7 636.672 1170.44 636.784 1170.13 636.784ZM1174.38 636.784C1174.07 636.784 1173.8 636.672 1173.58 636.448C1173.36 636.235 1173.26 635.968 1173.26 635.648C1173.26 635.328 1173.36 635.056 1173.58 634.832C1173.79 634.608 1174.06 634.496 1174.38 634.496C1174.69 634.496 1174.95 634.608 1175.16 634.832C1175.38 635.056 1175.48 635.328 1175.48 635.648C1175.48 635.957 1175.38 636.224 1175.16 636.448C1174.95 636.672 1174.69 636.784 1174.38 636.784ZM1178.63 636.784C1178.32 636.784 1178.05 636.672 1177.83 636.448C1177.61 636.235 1177.51 635.968 1177.51 635.648C1177.51 635.328 1177.61 635.056 1177.83 634.832C1178.04 634.608 1178.31 634.496 1178.63 634.496C1178.94 634.496 1179.2 634.608 1179.41 634.832C1179.63 635.056 1179.73 635.328 1179.73 635.648C1179.73 635.957 1179.63 636.224 1179.41 636.448C1179.2 636.672 1178.94 636.784 1178.63 636.784ZM1182.88 636.784C1182.57 636.784 1182.3 636.672 1182.08 636.448C1181.86 636.235 1181.76 635.968 1181.76 635.648C1181.76 635.328 1181.86 635.056 1182.08 634.832C1182.29 634.608 1182.56 634.496 1182.88 634.496C1183.19 634.496 1183.45 634.608 1183.66 634.832C1183.88 635.056 1183.98 635.328 1183.98 635.648C1183.98 635.957 1183.88 636.224 1183.66 636.448C1183.45 636.672 1183.19 636.784 1182.88 636.784ZM1187.13 636.784C1186.82 636.784 1186.55 636.672 1186.33 636.448C1186.11 636.235 1186.01 635.968 1186.01 635.648C1186.01 635.328 1186.11 635.056 1186.33 634.832C1186.54 634.608 1186.81 634.496 1187.13 634.496C1187.44 634.496 1187.7 634.608 1187.91 634.832C1188.13 635.056 1188.23 635.328 1188.23 635.648C1188.23 635.957 1188.13 636.224 1187.91 636.448C1187.7 636.672 1187.44 636.784 1187.13 636.784ZM1191.38 636.784C1191.07 636.784 1190.8 636.672 1190.58 636.448C1190.36 636.235 1190.26 635.968 1190.26 635.648C1190.26 635.328 1190.36 635.056 1190.58 634.832C1190.79 634.608 1191.06 634.496 1191.38 634.496C1191.69 634.496 1191.95 634.608 1192.16 634.832C1192.38 635.056 1192.48 635.328 1192.48 635.648C1192.48 635.957 1192.38 636.224 1192.16 636.448C1191.95 636.672 1191.69 636.784 1191.38 636.784Z" fill="#707070"/>
<defs>
<filter id="filter0_d_0_1" x="0" y="0" width="387" height="1404" filterUnits="userSpaceOnUse" color-interpolation-filters="sRGB">
<feFlood flood-opacity="0" result="BackgroundImageFix"/>
<feColorMatrix in="SourceAlpha" type="matrix" values="0 0 0 0 0 0 0 0 0 0 0 0 0 0 0 0 0 0 127 0" result="hardAlpha"/>
<feOffset/>
<feGaussianBlur stdDeviation="1"/>
<feComposite in2="hardAlpha" operator="out"/>
<feColorMatrix type="matrix" values="0 0 0 0 0.223022 0 0 0 0 0.223022 0 0 0 0 0.223022 0 0 0 0.25 0"/>
<feBlend mode="normal" in2="BackgroundImageFix" result="effect1_dropShadow_0_1"/>
<feBlend mode="normal" in="SourceGraphic" in2="effect1_dropShadow_0_1" result="shape"/>
</filter>
</defs>
</svg>
