<?xml version="1.0" encoding="UTF-8"?>
<svg xmlns="http://www.w3.org/2000/svg" viewBox="0 0 800 800">
  <defs>
    <style>
      .cls-1 {
        fill: #fff;
      }
    </style>
  </defs>
  <rect class="cls-1" width="800" height="800"/>
  <g id="_图层_1" data-name="图层 1">
    <path d="M98.24,478.91c0-2.7,1.12-4.95,3.38-6.76,2.25-1.79,5.17-2.7,8.79-2.7,17.12.45,46.18-3.15,87.18-10.81.44-3.15.68-7.66.68-13.52,0-7.2-.45-16.22-1.35-27.03-13.07,2.7-24.56,5.18-34.47,7.43-2.7.91-5.18,1.35-7.43,1.35-5.86,0-11.72-1.79-17.57-5.41-6.76-4.95-11.83-9.12-15.21-12.5-3.38-3.38-7.55-9.57-12.5-18.59-1.35-2.25-2.03-4.28-2.03-6.08,0-3.15.9-5.74,2.7-7.77,1.8-2.03,4.28-3.04,7.43-3.04,35.59-1.35,73.43-6.76,113.54-16.22,9.46-26.58,16.56-47.98,21.29-64.2,4.73-16.22,7.1-29.96,7.1-41.23,0-4.05-.23-6.98-.68-8.79-42.36,5.41-75.69,11.05-100.02,16.9-2.7.91-4.96,1.35-6.76,1.35-5.41,0-9.92-1.79-13.52-5.41-4.51-3.6-8.45-7.66-11.83-12.16-3.38-4.5-7.55-11.26-12.5-20.27-.45-.9-.68-2.03-.68-3.38,0-5.85,4.5-9.23,13.52-10.14,25.23-2.7,54.51-7.1,87.86-13.18,33.34-6.08,60.15-11.83,80.42-17.23,8.11-1.8,13.28-2.7,15.54-2.7,5.41,0,10.14,1.58,14.19,4.73,9.01,6.76,16.9,16,23.65,27.71,2.25,4.51,3.38,8.56,3.38,12.16,0,4.05-1.58,7.67-4.73,10.81-1.81,1.81-4.17,3.04-7.1,3.72-2.94.68-5.98,1.01-9.12,1.01h-8.11c-2.7,0-10.37.45-22.98,1.35,10.81,5.86,18.92,12.17,24.33,18.92,2.25,2.7,3.38,5.86,3.38,9.46,0,4.05-1.35,8.11-4.05,12.16-2.7,4.05-6.99,9.46-12.84,16.22-4.51,4.96-9.69,11.94-15.54,20.95-8.11,11.72-15.54,21.63-22.3,29.74l18.92-6.08c8.11-2.7,13.96-4.05,17.57-4.05,3.15,0,6.3.91,9.46,2.7,12.61,7.67,22.52,18.92,29.74,33.79,2.25,5.41,3.38,9.92,3.38,13.52,0,4.51-1.81,7.89-5.41,10.14-2.26,2.26-5.41,3.61-9.46,4.05-4.05.45-10.81.68-20.27.68-13.07,0-33.35,2.03-60.83,6.08l10.81,5.41c5.41,3.61,9.68,7.21,12.84,10.81,3.15,3.61,4.5,8.56,4.05,14.87l20.95-5.41c2.25-.9,5.63-1.35,10.14-1.35,6.3,0,11.49,1.58,15.54,4.73,5.85,4.51,10.81,9.58,14.87,15.21,4.05,5.64,6.76,11.15,8.11,16.56,2.25,3.61,3.38,7.21,3.38,10.81,0,7.21-4.29,10.81-12.84,10.81-15.32.91-41.23,4.29-77.72,10.14l-8.79,28.39c-8.56,30.19-17.35,55.42-26.36,75.69-9.02,20.27-22.76,39.3-41.23,57.11-18.48,17.79-43.03,30.75-73.67,38.86l-2.7.68c-1.81,0-3.38-.68-4.73-2.03-1.35-1.35-2.03-2.94-2.03-4.73,0-2.26.9-4.29,2.7-6.08,41.9-52.27,69.16-110.38,81.78-174.36l-22.3,4.05c-9.02,1.81-16.9,3.16-23.65,4.06-3.61.91-8.45.23-14.53-2.03-6.08-2.25-12.06-6.19-17.91-11.83-5.86-5.63-10.14-12.73-12.84-21.29-1.35-2.25-2.03-4.5-2.03-6.76ZM142.17,280.22c0-3.6,2.03-5.85,6.08-6.76,1.79-.44,5.17-.68,10.14-.68,8.11,0,17.23.91,27.37,2.7,10.14,1.81,17.46,4.05,21.96,6.76,13.52,6.76,20.28,16.22,20.28,28.39,0,13.97-7.67,27.03-22.98,39.2-1.81,1.35-3.61,2.03-5.41,2.03s-3.5-.56-5.07-1.69c-1.58-1.12-2.6-2.13-3.04-3.04l-48.66-62.85-.68-4.05ZM171.23,88.96c-.91-1.35-1.35-2.7-1.35-4.05,0-3.15,2.7-5.63,8.11-7.43,5.41-.9,10.58-1.35,15.54-1.35,11.26,0,23.08,1.25,35.48,3.72,12.39,2.48,21.51,5.52,27.37,9.12,19.82,9.92,29.74,23.43,29.74,40.55,0,9.02-2.6,17.91-7.77,26.7-5.19,8.79-12.06,16.79-20.61,23.99-1.81,1.81-4.29,2.7-7.43,2.7-2.7,0-5.19-.78-7.43-2.37-2.26-1.57-3.61-3.04-4.05-4.39-26.14-31.53-48.22-59.69-66.23-84.48,0-.44-.45-1.35-1.35-2.7ZM314.51,303.19c0-3.6,2.7-6.08,8.11-7.43,18.47-1.8,31.76-4.28,39.87-7.43,8.11-3.15,17.34-8.11,27.71-14.87,4.05-2.7,7.88-4.06,11.49-4.06,3.15,0,6.3.68,9.46,2.03,5.41,1.81,10.48,4.51,15.21,8.11,4.73,3.61,10.48,8.79,17.23,15.54,4.95,4.51,7.43,8.56,7.43,12.16s-2.03,7.43-6.08,11.49c-6.31,8.11-10.59,17.8-12.84,29.06-1.81,7.67-5.18,42.13-10.14,103.4-.45,3.61-.68,7.21-.68,10.81s-.23,6.99-.68,10.14c-.45,1.81-.23,2.94.68,3.38.9.45,1.8.23,2.7-.68l20.28-14.87c14.87-10.81,23.88-17.57,27.03-20.28l3.38-1.35c1.79,0,3.04.79,3.72,2.37.68,1.58.78,3.5.34,5.74-2.7,4.06-6.31,10.14-10.81,18.25,18.02,0,37.85-1.35,59.47-4.06-.45-20.27-2.26-37.85-5.41-52.71l-27.71,4.73c-1.35.91-3.83,1.35-7.43,1.35-5.86,0-11.72-1.79-17.57-5.41-6.31-5.41-11.15-9.91-14.53-13.52-3.38-3.6-7.55-9.9-12.5-18.92-.91-1.35-1.35-3.6-1.35-6.76,0-2.7.9-5.07,2.7-7.1,1.8-2.03,4.06-3.04,6.76-3.04,32.44,0,67.8-4.05,106.1-12.16,19.82-50.46,29.74-87.86,29.74-112.19-43.25,5.86-76.82,11.94-100.7,18.25-1.35.45-3.38.68-6.08.68-5.86,0-10.59-1.8-14.19-5.41-4.51-4.5-8.45-9.12-11.83-13.85s-7.55-11.83-12.5-21.29c-.45-.9-.68-2.25-.68-4.05,0-2.7,1.12-4.95,3.38-6.76,2.25-1.79,5.41-2.92,9.46-3.38,26.58-2.7,56.77-6.98,90.56-12.84-17.57-45.5-34.25-78.4-50.01-98.67,0-.44-.45-1.46-1.35-3.04-.91-1.57-1.35-3.04-1.35-4.39,0-3.15,2.7-5.41,8.11-6.76,1.79-.44,4.95-.68,9.46-.68,10.81,0,23.42,1.92,37.85,5.74,14.41,3.83,25.23,8,32.44,12.5,19.82,10.37,29.74,25.46,29.74,45.28,0,13.52-4.96,27.03-14.87,40.55,14.87-3.15,27.93-6.3,39.2-9.46,5.41-1.35,10.14-2.03,14.19-2.03,5.85,0,11.04,1.58,15.54,4.73,8.11,5.86,15.99,15.54,23.65,29.06,2.25,4.51,3.38,8.79,3.38,12.84,0,4.51-1.58,8.34-4.73,11.49-1.81,1.81-4.17,3.04-7.1,3.72-2.94.68-5.98,1.01-9.12,1.01h-8.11l-32.44,2.7c12.16,4.96,20.95,11.27,26.36,18.92,2.7,3.16,4.06,6.54,4.06,10.14,0,3.16-1.35,6.76-4.06,10.81-2.7,4.05-5.3,7.55-7.77,10.48-2.48,2.94-4.39,5.3-5.74,7.1.9-.9-2.7,3.38-10.81,12.84-17.13,19.83-27.94,32-32.44,36.49,6.3-1.79,11.71-3.38,16.22-4.73,4.5-1.35,8.33-2.47,11.49-3.38,1.79-.44,4.5-1.12,8.11-2.03,3.6-.9,6.76-1.35,9.46-1.35,4.06,0,7.2.91,9.46,2.7,13.96,9.46,23.65,21.18,29.06,35.14,2.7,5.41,4.06,9.46,4.06,12.16,0,4.96-2.26,8.79-6.76,11.49-2.26,1.81-5.07,2.94-8.45,3.38-3.38.45-7.77.68-13.18.68h-13.52c-8.56,0-24.11,1.35-46.63,4.05,3.15,2.7,4.73,6.76,4.73,12.16,0,1.81-.45,6.31-1.35,13.52l-2.03,29.06c20.28-3.6,36.72-6.76,49.34-9.46,1.79-.44,4.73-.68,8.79-.68,7.65,0,13.96,2.03,18.92,6.08,9.01,7.21,16.9,18.92,23.65,35.14,1.8,4.51,2.7,7.89,2.7,10.14,0,8.11-4.96,12.16-14.87,12.16-16.67,0-46.63,1.81-89.89,5.41v35.82c0,46.86.9,79.52,2.7,98,.44,2.7.68,6.53.68,11.49,0,17.12-3.83,31.65-11.49,43.59-7.67,11.93-15.78,17.91-24.33,17.91-5.41,0-11.72-2.48-18.92-7.43-7.21-4.96-13.41-11.83-18.59-20.61-5.18-8.79-7.77-18.59-7.77-29.4,0-3.16.9-18.7,2.7-46.63.44-9.01,1.24-23.32,2.37-42.91,1.12-19.6,1.91-37.05,2.37-52.38l-34.47,3.38c-5.41.91-12.17-1.12-20.28-6.08-8.11-4.95-15.1-11.71-20.95-20.28l-10.14,18.92c-10.81,19.83-20.39,36.61-28.72,50.35-8.34,13.75-17.69,27.37-28.05,40.89-4.06,4.51-8.79,6.76-14.19,6.76-4.05,0-7.67-.9-10.81-2.7-5.41-3.6-11.72-10.58-18.92-20.95-7.21-10.36-12.84-19.82-16.9-28.38-1.81-3.6-2.7-7.2-2.7-10.81,0-5.41,2.93-9.46,8.79-12.17,1.79-.9,5.41-2.81,10.81-5.74,5.41-2.93,9.57-5.97,12.5-9.12,2.93-3.15,4.84-6.76,5.74-10.81,4.05-19.82,7.88-48.09,11.49-84.82,3.6-36.72,5.63-63.87,6.08-81.44,0-2.25-.23-3.72-.68-4.39-.45-.68-1.58-.78-3.38-.34-3.16.45-7.1,1.58-11.83,3.38-4.73,1.81-8.9,2.7-12.5,2.7-4.05,0-8-2.25-11.83-6.76-3.83-4.5-7.55-9.68-11.15-15.54-3.61-5.85-6.08-9.68-7.43-11.49-1.81-4.5-2.7-7.2-2.7-8.11ZM396.96,245.75c-5.41,0-10.14-2.47-14.19-7.43-11.72-18.01-23.89-45.28-36.49-81.78-.45-.9-.68-2.03-.68-3.38,0-1.8.68-3.38,2.03-4.73,1.35-1.35,2.93-2.03,4.73-2.03,22.52,1.35,41.56,7.1,57.11,17.23,15.54,10.14,23.32,21.96,23.32,35.48,0,3.16-.23,5.64-.68,7.43-4.05,18.92-13.52,31.54-28.39,37.85-2.7.91-4.96,1.35-6.76,1.35ZM468.6,267.38c0-4.5,2.25-7.2,6.76-8.11,6.76-.9,15.77,0,27.03,2.7,11.26,2.7,20.04,6.08,26.36,10.14,12.61,8.11,18.92,18.48,18.92,31.09,0,7.67-2.37,15.44-7.1,23.32-4.73,7.89-10.93,14.53-18.59,19.94-1.35,1.35-2.93,2.03-4.73,2.03-2.26,0-4.29-.68-6.08-2.03-1.81-1.35-2.93-2.47-3.38-3.38l-14.87-28.39c-8.56-18.47-16.45-32.88-23.65-43.25l-.68-4.05Z"/>
  </g>
</svg>